{"glyphs":{"0":{"ha":1163,"x_min":0,"x_max":0,"o":"m 582 992 b 1135 486 872 992 1135 868 b 582 -21 1135 103 872 -21 b 28 486 290 -21 28 103 b 582 992 28 868 290 992 m 582 215 b 775 486 735 215 775 342 b 582 757 775 629 735 757 b 388 486 428 757 388 629 b 582 215 388 342 428 215 "},"1":{"ha":661,"x_min":0,"x_max":0,"o":"m 606 972 l 606 0 l 249 0 l 249 663 l 28 525 l 28 775 l 344 972 "},"2":{"ha":1104,"x_min":0,"x_max":0,"o":"m 1076 236 l 1076 0 l 14 0 b 717 679 14 571 717 475 b 571 779 717 754 651 779 b 410 667 492 779 418 758 l 56 667 b 574 992 76 900 279 992 b 1068 692 829 992 1068 932 b 422 236 1068 297 578 383 "},"3":{"ha":1107,"x_min":0,"x_max":0,"o":"m 876 522 b 1093 296 993 499 1093 440 b 549 -21 1093 42 833 -21 b 14 293 226 -21 21 60 l 360 293 b 557 203 371 211 475 203 b 732 307 636 203 732 217 b 557 396 732 396 625 396 l 394 396 l 394 619 l 558 619 b 696 701 649 619 696 639 b 544 779 696 763 631 779 b 378 706 472 779 393 778 l 43 706 b 549 992 58 922 251 992 b 1044 722 807 992 1044 943 b 876 522 1044 610 971 551 "},"4":{"ha":1154,"x_min":0,"x_max":0,"o":"m 1140 157 l 968 157 l 968 0 l 613 0 l 613 157 l 14 157 l 14 393 l 533 972 l 968 972 l 968 381 l 1140 381 m 613 381 l 613 699 l 340 381 "},"5":{"ha":1076,"x_min":0,"x_max":0,"o":"m 628 644 b 1063 335 838 644 1063 596 b 539 -21 1063 57 801 -21 b 14 279 242 -21 24 79 l 353 279 b 526 201 374 231 440 201 b 708 336 650 201 708 249 b 535 460 708 426 642 460 b 363 414 451 460 389 428 l 56 414 l 139 972 l 989 972 l 989 735 l 378 735 l 353 569 b 628 644 415 610 501 644 "},"6":{"ha":1135,"x_min":0,"x_max":0,"o":"m 647 643 b 1121 328 924 643 1121 565 b 594 -21 1121 57 872 -21 b 28 486 301 -21 28 83 b 592 992 28 888 311 992 b 1100 714 810 992 1079 926 l 743 714 b 594 769 724 761 654 769 b 375 532 435 769 383 675 b 647 643 421 593 519 643 m 594 201 b 774 328 699 201 774 231 b 607 447 774 424 683 447 b 404 328 521 447 404 443 b 594 201 404 213 508 201 "},"7":{"ha":1064,"x_min":0,"x_max":0,"o":"m 1050 972 l 1050 735 b 586 0 926 651 640 467 l 214 0 b 700 735 238 426 565 651 l 14 735 l 14 972 "},"8":{"ha":1171,"x_min":0,"x_max":0,"o":"m 931 521 b 1157 288 1056 493 1157 429 b 585 -21 1157 10 863 -21 b 14 288 307 -21 14 10 b 239 521 14 429 114 493 b 64 722 139 554 64 615 b 585 992 67 914 247 992 b 1107 722 922 992 1104 914 b 931 521 1107 615 1032 554 m 585 783 b 413 686 489 783 413 769 b 585 599 413 600 518 599 b 757 686 651 599 757 600 b 585 783 757 769 681 783 m 585 201 b 783 307 689 201 783 214 b 585 414 783 396 700 414 b 386 307 469 414 386 396 b 585 201 386 214 482 201 "},"9":{"ha":1136,"x_min":0,"x_max":0,"o":"m 542 992 b 1108 486 833 992 1108 888 b 543 -21 1108 83 824 -21 b 35 258 325 -21 56 44 l 393 258 b 542 201 411 210 482 201 b 760 440 701 201 751 297 b 489 328 714 378 615 328 b 14 643 211 328 14 406 b 542 992 14 914 263 992 m 528 524 b 731 643 615 524 731 529 b 542 769 731 758 628 769 b 361 643 438 769 361 740 b 528 524 361 547 453 524 "},"A":{"ha":1333,"x_min":0,"x_max":0,"o":"m 883 138 l 450 138 l 396 0 l 0 0 l 450 972 l 883 972 l 1333 0 l 938 0 m 783 388 l 667 685 l 550 388 "},"B":{"ha":1269,"x_min":0,"x_max":0,"o":"m 1032 508 b 1242 285 1157 478 1242 413 b 772 0 1242 54 1085 0 l 56 0 l 56 972 l 803 972 b 1206 724 1044 972 1206 933 b 1032 513 1206 606 1138 544 l 1032 508 m 438 735 l 438 604 l 740 604 b 832 672 811 604 832 631 b 740 735 832 713 811 735 m 757 236 b 856 311 835 236 856 265 b 757 379 856 357 832 379 l 438 379 l 438 236 l 757 236 "},"C":{"ha":1314,"x_min":0,"x_max":0,"o":"m 660 228 b 896 411 807 228 876 303 l 1286 411 b 660 -21 1243 90 967 -21 b 28 486 338 -21 28 104 b 660 992 28 867 338 992 b 1286 560 967 992 1243 881 l 896 560 b 660 743 876 669 807 743 b 414 486 493 743 414 647 b 660 228 414 324 493 228 "},"D":{"ha":1268,"x_min":0,"x_max":0,"o":"m 614 972 b 1240 486 935 972 1240 903 b 614 0 1240 68 935 0 l 56 0 l 56 972 l 614 972 m 500 250 b 854 486 696 250 854 246 b 500 721 854 726 696 721 l 438 721 l 438 250 l 500 250 "},"E":{"ha":1122,"x_min":0,"x_max":0,"o":"m 1081 0 l 56 0 l 56 972 l 1068 972 l 1068 721 l 438 721 l 438 611 l 1029 611 l 1029 374 l 438 374 l 438 250 l 1081 250 "},"F":{"ha":1096,"x_min":0,"x_max":0,"o":"m 438 721 l 438 585 l 1028 585 l 1028 347 l 438 347 l 438 0 l 56 0 l 56 972 l 1068 972 l 1068 721 "},"G":{"ha":1346,"x_min":0,"x_max":0,"o":"m 1314 578 b 694 -21 1347 158 1085 -21 b 28 486 365 -21 28 96 b 674 992 28 875 353 992 b 1292 647 971 992 1232 888 l 901 647 b 674 743 865 700 804 743 b 414 486 494 743 414 647 b 699 228 414 324 525 228 b 929 340 850 228 911 294 l 646 340 l 646 578 l 1314 578 "},"I":{"ha":493,"x_min":0,"x_max":0,"o":"m 438 972 l 438 0 l 56 0 l 56 972 "},"J":{"ha":1140,"x_min":0,"x_max":0,"o":"m 1085 972 l 1085 421 b 553 -21 1085 22 846 -21 b 28 376 249 -21 28 43 l 28 514 l 386 513 l 386 393 b 553 228 386 292 421 228 b 703 421 681 228 703 313 l 703 972 "},"K":{"ha":1254,"x_min":0,"x_max":0,"o":"m 553 351 l 438 247 l 438 0 l 56 0 l 56 972 l 438 972 l 438 664 l 761 972 l 1235 972 l 810 585 l 1254 0 l 804 0 "},"L":{"ha":1094,"x_min":0,"x_max":0,"o":"m 1067 0 l 56 0 l 56 972 l 438 972 l 438 250 l 1067 250 "},"M":{"ha":1582,"x_min":0,"x_max":0,"o":"m 1526 972 l 1526 0 l 1144 0 l 1144 525 l 950 0 l 633 0 l 438 525 l 438 0 l 56 0 l 56 972 l 576 972 l 792 369 l 1006 972 "},"N":{"ha":1283,"x_min":0,"x_max":0,"o":"m 1228 972 l 1228 0 l 825 0 l 438 528 l 438 0 l 56 0 l 56 972 l 457 972 l 846 443 l 846 972 "},"O":{"ha":1374,"x_min":0,"x_max":0,"o":"m 686 992 b 1346 486 1015 992 1346 865 b 686 -21 1346 106 1015 -21 b 28 486 357 -21 28 106 b 686 992 28 865 357 992 m 686 228 b 958 486 864 228 958 329 b 686 743 958 642 864 743 b 414 486 508 743 414 642 b 686 228 414 329 508 228 "},"P":{"ha":1224,"x_min":0,"x_max":0,"o":"m 774 972 b 1196 636 1063 972 1196 856 b 747 289 1196 376 1015 289 l 438 289 l 438 0 l 56 0 l 56 972 l 774 972 m 692 538 b 815 633 775 538 815 567 b 692 721 815 694 775 721 l 438 721 l 438 538 l 692 538 "},"Q":{"ha":1374,"x_min":0,"x_max":0,"o":"m 1346 486 b 1200 136 1346 329 1289 215 l 1346 -14 l 992 -14 l 964 14 b 688 -21 878 -10 782 -21 b 28 486 358 -21 28 106 b 688 992 28 865 358 992 b 1346 486 1017 992 1346 865 m 688 228 b 751 233 710 228 732 229 l 571 419 l 925 419 l 947 396 b 960 486 956 424 960 453 b 688 743 960 642 865 743 b 415 486 510 743 415 642 b 688 228 415 329 510 228 "},"R":{"ha":1239,"x_min":0,"x_max":0,"o":"m 647 303 l 438 303 l 438 0 l 56 0 l 56 972 l 786 972 b 1210 644 1067 972 1210 867 b 1014 350 1210 494 1133 400 l 1239 0 l 836 0 m 438 551 l 704 551 b 828 640 786 551 828 578 b 704 721 828 700 786 721 l 438 721 "},"S":{"ha":1235,"x_min":0,"x_max":0,"o":"m 665 617 b 1221 308 996 583 1221 567 b 611 -21 1221 51 993 -21 b 14 315 172 -21 14 104 l 413 315 b 633 214 413 240 476 214 b 814 279 760 214 814 232 b 467 369 814 331 774 331 b 40 675 164 408 40 474 b 597 992 40 889 221 992 b 1157 675 1011 992 1157 858 l 771 675 b 594 758 771 731 722 758 b 418 692 461 758 418 732 b 665 617 418 639 489 635 "},"T":{"ha":1174,"x_min":0,"x_max":0,"o":"m 1146 721 l 778 721 l 778 0 l 396 0 l 396 721 l 28 721 l 28 972 l 1146 972 "},"U":{"ha":1244,"x_min":0,"x_max":0,"o":"m 1189 972 l 1189 400 b 622 -21 1189 18 924 -21 b 56 400 322 -21 56 18 l 56 972 l 438 972 l 438 418 b 622 228 438 276 492 228 b 807 418 754 228 807 276 l 807 972 "},"V":{"ha":1332,"x_min":0,"x_max":0,"o":"m 1332 972 l 883 0 l 450 0 l 0 972 l 396 972 l 667 286 l 936 972 "},"W":{"ha":1742,"x_min":0,"x_max":0,"o":"m 1742 972 l 1424 0 l 1017 0 l 871 536 l 725 0 l 318 0 l 0 972 l 396 972 l 554 390 l 713 972 l 1029 972 l 1188 390 l 1346 972 "},"X":{"ha":1246,"x_min":0,"x_max":0,"o":"m 1260 0 l 817 0 l 624 285 l 431 0 l -14 0 l 394 507 l 22 972 l 465 972 l 624 729 l 781 972 l 1225 972 l 853 507 "},"Y":{"ha":1256,"x_min":0,"x_max":0,"o":"m 1269 972 l 819 344 l 819 0 l 436 0 l 436 344 l -14 972 l 404 972 l 628 610 l 851 972 "},"Z":{"ha":1200,"x_min":0,"x_max":0,"o":"m 1172 250 l 1172 0 l 28 0 l 28 197 l 601 721 l 54 721 l 54 972 l 1158 972 l 1158 774 l 585 250 "},"a":{"ha":1004,"x_min":0,"x_max":0,"o":"m 500 760 b 963 474 744 760 963 718 l 963 0 l 621 0 l 621 74 b 350 -21 571 24 483 -21 b 28 204 140 -21 28 51 b 621 456 28 376 132 479 l 621 474 b 500 576 621 542 597 576 b 374 515 425 576 383 561 l 68 515 b 500 760 94 696 253 760 m 621 283 b 356 210 450 292 356 286 b 451 143 356 153 407 143 b 621 203 525 143 583 168 "},"b":{"ha":1054,"x_min":0,"x_max":0,"o":"m 628 760 b 1026 369 857 760 1026 621 b 628 -21 1026 118 857 -21 b 371 75 514 -21 428 13 l 371 0 l 28 0 l 28 972 l 371 972 l 371 664 b 628 760 428 726 514 760 m 524 197 b 697 369 644 197 697 275 b 524 543 697 465 644 543 b 344 369 400 543 344 472 b 524 197 344 267 400 197 "},"c":{"ha":1044,"x_min":0,"x_max":0,"o":"m 532 197 b 696 303 622 197 675 239 l 1017 303 b 532 -21 981 56 754 -21 b 28 369 289 -21 28 69 b 532 760 28 671 289 760 b 1017 438 754 760 981 683 l 696 438 b 532 543 675 501 622 543 b 357 369 411 543 357 469 b 532 197 357 269 411 197 "},"d":{"ha":1068,"x_min":0,"x_max":0,"o":"m 28 369 b 425 760 28 621 197 760 b 683 664 540 760 625 726 l 683 972 l 1026 972 l 1026 0 l 683 0 l 683 75 b 425 -21 625 13 540 -21 b 28 369 197 -21 28 118 m 357 369 b 531 197 357 275 410 197 b 710 369 653 197 710 267 b 531 543 710 472 653 543 b 357 369 410 543 357 465 "},"e":{"ha":1022,"x_min":0,"x_max":0,"o":"m 353 301 b 525 183 371 232 424 183 b 669 250 596 183 642 210 l 982 250 b 525 -21 935 47 732 -21 b 28 369 281 -21 28 83 b 518 760 28 656 278 760 b 993 301 742 760 1013 646 m 518 556 b 354 446 421 556 374 510 l 671 446 b 518 556 651 514 606 556 "},"f":{"ha":697,"x_min":0,"x_max":0,"o":"m 683 818 b 478 740 575 822 478 835 l 671 740 l 671 556 l 478 556 l 478 0 l 136 0 l 136 556 l 14 556 l 14 740 l 136 740 b 511 1025 136 951 235 1025 b 683 1015 574 1025 631 1019 l 683 818 "},"g":{"ha":1068,"x_min":0,"x_max":0,"o":"m 1026 740 l 1026 56 b 497 -258 1026 -232 774 -258 b 47 -7 172 -258 53 -157 l 360 -7 b 497 -61 374 -56 443 -61 b 685 56 578 -61 685 -64 l 685 119 b 453 46 633 72 558 46 b 28 396 224 46 28 144 b 426 760 28 647 197 760 b 685 674 542 760 626 731 l 685 740 m 532 250 b 711 396 650 250 711 299 b 532 543 711 494 646 543 b 358 396 417 543 358 488 b 532 250 358 304 414 250 "},"h":{"ha":1007,"x_min":0,"x_max":0,"o":"m 646 760 b 965 457 858 760 965 660 l 965 0 l 624 0 l 624 388 b 506 531 624 469 607 531 b 383 388 406 531 383 471 l 383 0 l 42 0 l 42 972 l 383 972 l 383 649 b 646 760 419 697 497 760 "},"i":{"ha":425,"x_min":0,"x_max":0,"o":"m 213 796 b 38 956 110 796 38 854 b 213 1117 38 1058 110 1117 b 388 956 315 1117 388 1058 b 213 796 388 854 315 796 m 42 740 l 383 740 l 383 0 l 42 0 "},"j":{"ha":425,"x_min":0,"x_max":0,"o":"m 213 796 b 38 956 110 796 38 854 b 213 1117 38 1058 110 1117 b 388 956 315 1117 388 1058 b 213 796 388 854 315 796 m 42 740 l 383 740 l 383 53 b 46 -258 383 -165 329 -258 b -85 -253 -15 -258 -35 -257 l -85 -24 b 42 53 10 -25 42 -21 "},"k":{"ha":1011,"x_min":0,"x_max":0,"o":"m 450 231 l 385 168 l 385 0 l 42 0 l 42 972 l 385 972 l 385 540 l 569 740 l 982 740 l 669 442 l 997 0 l 603 0 "},"l":{"ha":425,"x_min":0,"x_max":0,"o":"m 383 1025 l 383 0 l 42 0 l 42 1025 "},"m":{"ha":1485,"x_min":0,"x_max":0,"o":"m 1136 760 b 1443 457 1349 760 1443 660 l 1443 0 l 1100 0 l 1100 388 b 1010 531 1100 464 1101 531 b 913 388 918 531 913 468 l 913 0 l 571 0 l 571 388 b 481 531 571 464 572 531 b 383 388 388 531 383 468 l 383 0 l 42 0 l 42 740 l 383 740 l 383 640 b 619 760 417 692 488 760 b 876 643 751 760 833 721 b 1136 760 914 692 996 760 "},"n":{"ha":1007,"x_min":0,"x_max":0,"o":"m 646 760 b 965 457 858 760 965 660 l 965 0 l 624 0 l 624 388 b 506 531 624 469 607 531 b 383 388 406 531 383 471 l 383 0 l 42 0 l 42 740 l 383 740 l 383 649 b 646 760 419 697 497 760 "},"o":{"ha":1063,"x_min":0,"x_max":0,"o":"m 532 760 b 1035 369 774 760 1035 671 b 532 -21 1035 69 774 -21 b 28 369 290 -21 28 69 b 532 760 28 671 290 760 m 532 197 b 706 369 651 197 706 269 b 532 543 706 469 651 543 b 357 369 411 543 357 469 b 532 197 357 269 411 197 "},"p":{"ha":1068,"x_min":0,"x_max":0,"o":"m 1040 369 b 642 -21 1040 118 871 -21 b 383 75 528 -21 442 13 l 383 -232 l 42 -232 l 42 740 l 383 740 l 383 664 b 642 760 442 726 528 760 b 1040 369 871 760 1040 621 m 711 369 b 536 543 711 465 658 543 b 357 369 414 543 357 474 b 536 197 357 267 414 197 b 711 369 658 197 711 275 "},"q":{"ha":1067,"x_min":0,"x_max":0,"o":"m 425 -21 b 28 369 196 -21 28 118 b 425 760 28 621 196 760 b 683 664 540 760 625 726 l 683 740 l 1025 740 l 1025 -232 l 683 -232 l 683 75 b 425 -21 625 13 540 -21 m 531 543 b 357 369 410 543 357 465 b 531 197 357 275 410 197 b 710 369 653 197 710 267 b 531 543 710 474 653 543 "},"r":{"ha":789,"x_min":0,"x_max":0,"o":"m 654 760 b 761 754 711 760 728 757 l 761 479 l 731 479 b 579 507 693 490 647 507 b 383 301 418 507 383 422 l 383 0 l 42 0 l 42 740 l 383 740 l 383 626 b 654 760 414 681 489 760 "},"s":{"ha":1010,"x_min":0,"x_max":0,"o":"m 557 476 b 996 236 806 447 996 438 b 506 -21 996 33 796 -21 b 14 240 193 -21 14 56 l 365 240 b 519 163 365 167 444 163 b 646 215 585 163 646 171 b 389 285 646 268 569 263 b 43 514 174 313 43 350 b 492 760 43 686 214 760 b 953 515 807 760 953 665 l 619 515 b 489 578 619 564 558 578 b 365 531 422 578 365 571 b 557 476 365 488 429 492 "},"t":{"ha":751,"x_min":0,"x_max":0,"o":"m 493 556 l 493 308 b 710 219 493 217 525 210 l 710 -1 b 556 -12 664 -7 607 -12 b 151 308 253 -12 151 43 l 151 556 l 14 556 l 14 740 l 151 740 l 151 932 l 493 932 l 493 740 l 710 740 l 710 556 "},"u":{"ha":1007,"x_min":0,"x_max":0,"o":"m 361 -19 b 42 283 149 -19 42 81 l 42 740 l 383 740 l 383 353 b 501 210 383 271 400 210 b 624 353 601 210 624 269 l 624 740 l 965 740 l 965 0 l 624 0 l 624 92 b 361 -19 588 43 510 -19 "},"v":{"ha":1000,"x_min":0,"x_max":0,"o":"m 1000 740 l 656 0 l 331 0 l -14 740 l 338 740 l 493 336 l 649 740 "},"w":{"ha":1479,"x_min":0,"x_max":0,"o":"m 1479 740 l 1174 0 l 868 0 l 732 379 l 596 0 l 292 0 l -14 740 l 338 740 l 458 375 l 590 740 l 875 740 l 1006 375 l 1128 740 "},"x":{"ha":1007,"x_min":0,"x_max":0,"o":"m 1021 0 l 639 0 l 503 189 l 368 0 l -14 0 l 306 375 l 7 740 l 389 740 l 503 561 l 618 740 l 1000 740 l 700 375 "},"y":{"ha":1000,"x_min":0,"x_max":0,"o":"m 1000 740 l 556 -232 l 208 -232 l 340 6 l -14 740 l 338 740 l 499 340 l 649 740 "},"z":{"ha":1001,"x_min":0,"x_max":0,"o":"m 960 210 l 960 0 l 42 0 l 42 197 l 475 529 l 69 529 l 69 740 l 946 740 l 946 543 l 514 210 "},",":{"ha":413,"x_min":0,"x_max":0,"o":"m 385 204 l 251 -128 l 28 -128 l 82 204 "},".":{"ha":413,"x_min":0,"x_max":0,"o":"m 207 310 b 371 144 297 310 371 235 b 207 -21 371 53 297 -21 b 42 144 115 -21 42 53 b 207 310 42 235 115 310 "},":":{"ha":413,"x_min":0,"x_max":0,"o":"m 207 310 b 371 144 297 310 371 235 b 207 -21 371 53 297 -21 b 42 144 115 -21 42 53 b 207 310 42 235 115 310 m 207 431 b 42 596 115 431 42 504 b 207 760 42 686 115 760 b 371 596 297 760 371 686 b 207 431 371 504 297 431 "},";":{"ha":421,"x_min":0,"x_max":0,"o":"m 83 204 l 385 204 l 251 -128 l 28 -128 m 228 431 b 63 596 138 431 63 504 b 228 760 63 686 138 760 b 393 596 319 760 393 686 b 228 431 393 504 319 431 "},"!":{"ha":424,"x_min":0,"x_max":0,"o":"m 211 310 b 376 144 303 310 376 235 b 211 -21 376 53 303 -21 b 47 144 121 -21 47 53 b 211 310 47 235 121 310 m 78 356 l 28 972 l 396 972 l 346 356 "},"?":{"ha":992,"x_min":0,"x_max":0,"o":"m 482 992 b 978 710 764 992 978 938 b 621 356 978 426 621 521 l 319 356 b 636 699 319 621 636 546 b 496 779 636 769 560 779 b 336 669 424 779 347 764 l 14 669 b 482 992 31 915 217 992 m 474 310 b 639 144 565 310 639 235 b 474 -21 639 53 565 -21 b 310 144 383 -21 310 53 b 474 310 310 235 383 310 "},"¿":{"ha":992,"x_min":0,"x_max":0,"o":"m 978 71 b 510 -251 961 -175 775 -251 b 14 31 228 -251 14 -199 b 371 385 14 314 371 219 l 672 385 b 356 40 672 118 356 193 b 496 -40 356 -29 432 -40 b 656 71 568 -40 644 -24 m 517 431 b 353 596 426 431 353 504 b 517 760 353 686 426 760 b 682 596 608 760 682 686 b 517 431 682 504 608 431 "},"¡":{"ha":424,"x_min":0,"x_max":0,"o":"m 211 431 b 47 596 121 431 47 504 b 211 760 47 686 121 760 b 376 596 303 760 376 686 b 211 431 376 504 303 431 m 78 385 l 346 385 l 396 -232 l 28 -232 "},"-":{"ha":658,"x_min":0,"x_max":0,"o":"m 603 503 l 603 279 l 56 279 l 56 503 "},"–":{"ha":883,"x_min":0,"x_max":0,"o":"m 828 503 l 828 279 l 56 279 l 56 503 "},"—":{"ha":1028,"x_min":0,"x_max":0,"o":"m 972 503 l 972 279 l 56 279 l 56 503 "},"−":{"ha":803,"x_min":0,"x_max":0,"o":"m 747 556 l 747 332 l 56 332 l 56 556 "},"_":{"ha":1051,"x_min":0,"x_max":0,"o":"m 1038 -72 l 1038 -231 l 14 -231 l 14 -72 "},"+":{"ha":803,"x_min":0,"x_max":0,"o":"m 747 332 l 514 332 l 514 97 l 289 97 l 289 332 l 56 332 l 56 556 l 289 556 l 289 790 l 514 790 l 514 556 l 747 556 "},"×":{"ha":760,"x_min":0,"x_max":0,"o":"m 538 443 l 704 278 l 546 119 l 379 285 l 214 119 l 56 278 l 221 443 l 56 610 l 214 768 l 379 601 l 546 768 l 704 610 "},"÷":{"ha":803,"x_min":0,"x_max":0,"o":"m 401 292 b 531 163 472 292 531 233 b 401 33 531 90 472 33 b 272 163 329 33 272 90 b 401 292 272 233 329 292 m 401 596 b 272 725 329 596 272 653 b 401 854 272 796 329 854 b 531 725 472 854 531 796 b 401 596 531 653 472 596 m 747 543 l 747 344 l 56 344 l 56 543 "},"=":{"ha":804,"x_min":0,"x_max":0,"o":"m 749 674 l 749 476 l 56 476 l 56 674 m 56 411 l 749 411 l 749 213 l 56 213 "},"≠":{"ha":803,"x_min":0,"x_max":0,"o":"m 499 476 l 457 411 l 747 411 l 747 213 l 336 213 l 260 90 l 107 90 l 183 213 l 56 213 l 56 411 l 306 411 l 346 476 l 56 476 l 56 674 l 468 674 l 544 797 l 696 797 l 621 674 l 747 674 l 747 476 "},"<":{"ha":778,"x_min":0,"x_max":0,"o":"m 722 599 l 313 443 l 722 288 l 722 64 l 56 349 l 56 539 l 722 824 "},">":{"ha":778,"x_min":0,"x_max":0,"o":"m 722 539 l 722 349 l 56 64 l 56 288 l 465 443 l 56 599 l 56 824 "},"±":{"ha":776,"x_min":0,"x_max":0,"o":"m 56 185 l 721 185 l 721 0 l 56 0 m 721 600 l 721 403 l 486 403 l 486 221 l 289 221 l 289 403 l 56 403 l 56 600 l 289 600 l 289 781 l 486 781 l 486 600 "},"≤":{"ha":778,"x_min":0,"x_max":0,"o":"m 56 185 l 722 185 l 722 0 l 56 0 m 722 611 l 356 501 l 722 390 l 722 192 l 56 418 l 56 583 l 722 810 "},"≥":{"ha":776,"x_min":0,"x_max":0,"o":"m 56 185 l 721 185 l 721 0 l 56 0 m 721 583 l 721 418 l 56 192 l 56 390 l 422 501 l 56 611 l 56 810 "},"«":{"ha":700,"x_min":0,"x_max":0,"o":"m 28 532 l 317 751 l 317 486 l 176 390 l 317 296 l 317 31 l 28 250 m 658 486 l 518 390 l 658 296 l 658 31 l 369 250 l 369 532 l 658 751 "},"»":{"ha":700,"x_min":0,"x_max":0,"o":"m 672 532 l 672 250 l 382 31 l 382 296 l 524 390 l 382 486 l 382 751 m 42 751 l 331 532 l 331 250 l 42 31 l 42 296 l 182 390 l 42 486 "},"~":{"ha":778,"x_min":0,"x_max":0,"o":"m 576 500 b 722 572 644 500 682 524 l 722 343 b 563 274 703 318 660 274 b 214 383 436 274 335 383 b 56 299 146 383 92 340 l 56 529 b 228 613 101 572 144 613 b 576 500 371 613 451 500 "},"≈":{"ha":779,"x_min":0,"x_max":0,"o":"m 576 658 b 724 732 644 658 682 682 l 724 501 b 563 432 704 478 660 432 b 214 542 436 432 335 542 b 56 457 146 542 92 499 l 56 688 b 228 771 101 732 146 771 b 576 658 371 771 451 658 m 576 340 b 724 414 644 340 682 365 l 724 183 b 563 115 704 160 660 115 b 214 224 436 115 335 224 b 56 140 146 224 92 182 l 56 371 b 228 454 101 414 146 454 b 576 340 371 454 451 340 "},"^":{"ha":776,"x_min":0,"x_max":0,"o":"m 539 503 l 389 763 l 238 503 l 14 503 l 275 944 l 501 944 l 763 503 "},"†":{"ha":919,"x_min":0,"x_max":0,"o":"m 892 457 l 604 457 l 604 -258 l 314 -258 l 314 457 l 28 457 l 28 694 l 314 694 l 314 972 l 604 972 l 604 694 l 892 694 "},"‡":{"ha":919,"x_min":0,"x_max":0,"o":"m 606 457 l 606 257 l 892 257 l 892 19 l 606 19 l 606 -258 l 315 -258 l 315 19 l 28 19 l 28 257 l 315 257 l 315 457 l 28 457 l 28 694 l 315 694 l 315 972 l 606 972 l 606 694 l 892 694 l 892 457 "},"¶":{"ha":972,"x_min":0,"x_max":0,"o":"m 931 972 l 931 -246 l 693 -246 l 693 774 l 614 774 l 614 -246 l 378 -246 l 378 313 b 14 642 144 321 14 429 b 390 972 14 858 150 968 "},"/":{"ha":721,"x_min":0,"x_max":0,"o":"m 721 1025 l 267 -53 l 0 -53 l 453 1025 "},"{":{"ha":615,"x_min":0,"x_max":0,"o":"m 444 550 b 318 401 444 454 394 413 l 318 399 b 444 251 394 389 444 346 l 444 -15 b 510 -93 444 -76 463 -93 l 601 -93 l 601 -290 l 340 -290 b 149 -93 208 -290 149 -224 l 149 190 b 28 299 149 293 100 299 l 28 501 b 149 610 100 501 149 507 l 149 893 b 340 1090 149 1024 208 1090 l 601 1090 l 601 893 l 510 893 b 444 817 463 893 444 876 l 444 550 "},"[":{"ha":557,"x_min":0,"x_max":0,"o":"m 331 879 l 331 -79 l 543 -79 l 543 -290 l 28 -290 l 28 1090 l 543 1090 l 543 879 "},"(":{"ha":564,"x_min":0,"x_max":0,"o":"m 550 1046 b 328 414 450 940 328 718 b 550 -219 328 108 450 -114 l 306 -219 b 14 414 203 -125 14 65 b 306 1046 14 761 203 951 l 550 1046 "},"]":{"ha":557,"x_min":0,"x_max":0,"o":"m 529 1090 l 529 -290 l 14 -290 l 14 -79 l 226 -79 l 226 879 l 14 879 l 14 1090 "},"|":{"ha":401,"x_min":0,"x_max":0,"o":"m 346 1090 l 346 -290 l 56 -290 l 56 1090 "},"¦":{"ha":401,"x_min":0,"x_max":0,"o":"m 56 301 l 346 301 l 346 -290 l 56 -290 m 346 1090 l 346 500 l 56 500 l 56 1090 "},")":{"ha":564,"x_min":0,"x_max":0,"o":"m 258 1046 b 550 414 361 951 550 761 b 258 -219 550 65 361 -125 l 14 -219 b 236 414 114 -114 236 108 b 14 1046 236 718 114 940 l 258 1046 "},"}":{"ha":615,"x_min":0,"x_max":0,"o":"m 467 610 b 588 501 467 507 515 501 l 588 299 b 467 190 515 299 467 293 l 467 -93 b 275 -290 467 -224 407 -290 l 14 -290 l 14 -93 l 106 -93 b 171 -15 153 -93 171 -76 l 171 251 b 297 399 171 346 221 389 l 297 401 b 171 550 221 413 171 454 l 171 817 b 106 893 171 876 153 893 l 14 893 l 14 1090 l 275 1090 b 467 893 407 1090 467 1024 l 467 610 "},"\\":{"ha":721,"x_min":0,"x_max":0,"o":"m 721 -53 l 454 -53 l 0 1025 l 268 1025 "},"$":{"ha":1235,"x_min":0,"x_max":0,"o":"m 1221 308 b 683 -19 1221 68 1022 -10 l 683 -158 l 551 -158 l 551 -19 b 14 315 158 -8 14 114 l 413 315 b 551 217 413 254 454 226 l 551 360 b 467 369 526 363 499 367 b 40 675 164 408 40 475 b 551 992 40 881 206 983 l 551 1129 l 683 1129 l 683 990 b 1157 675 1032 972 1157 846 l 771 675 b 683 751 771 715 746 740 l 683 615 b 1221 308 1004 583 1221 563 m 418 692 b 551 629 418 653 458 640 l 551 757 b 418 692 451 751 418 728 m 683 215 b 814 279 775 219 814 239 b 683 342 814 315 794 326 l 683 215 "},"¢":{"ha":1044,"x_min":0,"x_max":0,"o":"m 601 324 b 696 418 650 339 681 374 l 1017 418 b 601 99 983 197 799 114 l 601 0 l 469 0 l 469 97 b 28 486 247 113 28 211 b 469 874 28 761 247 860 l 469 972 l 601 972 l 601 874 b 1017 553 799 858 983 774 l 696 553 b 601 649 681 599 650 632 l 601 324 m 357 486 b 469 321 357 404 393 342 l 469 651 b 357 486 393 629 357 567 "},"₽":{"ha":1319,"x_min":0,"x_max":0,"o":"m 533 289 l 533 250 l 925 250 l 925 118 l 533 118 l 533 0 l 151 0 l 151 118 l 42 118 l 42 250 l 151 250 l 151 289 l 42 289 l 42 538 l 151 538 l 151 972 l 868 972 b 1292 636 1157 972 1292 856 b 842 289 1292 376 1111 289 m 533 538 l 788 538 b 910 633 869 538 910 567 b 788 722 910 696 869 722 l 533 722 "},"€":{"ha":1410,"x_min":0,"x_max":0,"o":"m 757 231 b 993 414 904 231 974 306 l 1382 414 b 757 -18 1340 93 1063 -18 b 143 336 481 -18 215 74 l 14 336 l 14 468 l 125 468 b 124 489 125 475 124 482 b 125 508 124 496 125 501 l 14 508 l 14 640 l 143 640 b 757 994 215 903 481 994 b 1382 563 1063 994 1340 885 l 993 563 b 757 746 974 672 904 746 b 544 640 651 746 582 708 l 897 640 l 897 508 l 511 508 b 511 489 511 501 511 496 b 511 468 511 482 511 475 l 897 468 l 897 336 l 544 336 b 757 231 582 268 651 231 "},"₿":{"ha":1269,"x_min":0,"x_max":0,"o":"m 1242 288 b 839 3 1242 75 1106 11 l 839 -156 l 707 -156 l 707 3 l 575 3 l 575 -156 l 443 -156 l 443 3 l 56 3 l 56 975 l 443 975 l 443 1132 l 575 1132 l 575 975 l 707 975 l 707 1132 l 839 1132 l 839 974 b 1204 726 1061 969 1204 925 b 1032 515 1204 608 1136 547 l 1032 513 b 1242 288 1157 481 1242 415 m 438 738 l 438 607 l 739 607 b 832 675 810 607 832 633 b 739 738 832 715 811 738 m 756 239 b 854 314 835 239 854 269 b 756 382 854 360 832 382 l 438 382 l 438 239 l 756 239 "},"¥":{"ha":1254,"x_min":0,"x_max":0,"o":"m 903 463 l 1068 463 l 1068 331 l 818 331 l 818 290 l 1068 290 l 1068 158 l 818 158 l 818 0 l 436 0 l 436 158 l 185 158 l 185 290 l 436 290 l 436 331 l 185 331 l 185 463 l 351 463 l -14 972 l 403 972 l 626 611 l 850 972 l 1268 972 "},"£":{"ha":1071,"x_min":0,"x_max":0,"o":"m 1057 65 b 790 -18 1029 40 932 -18 b 350 44 621 -18 511 44 b 129 -24 229 44 160 -4 l 28 154 b 156 346 119 210 156 265 b 151 396 156 364 154 381 l 28 396 l 28 528 l 97 528 b 64 674 79 568 64 613 b 546 994 64 918 300 994 b 1031 643 842 994 1031 899 l 685 643 b 553 782 685 722 656 782 b 406 667 444 782 406 736 b 442 528 406 600 426 572 l 739 528 l 739 396 l 460 396 b 357 233 454 335 413 281 l 360 228 b 482 253 401 243 443 253 b 772 225 604 253 668 225 b 967 292 864 225 925 256 "},"¤":{"ha":869,"x_min":0,"x_max":0,"o":"m 813 489 b 746 275 813 407 788 335 l 828 194 l 736 100 l 650 185 b 435 124 589 146 515 124 b 221 185 356 124 281 146 l 135 100 l 42 194 l 125 275 b 57 489 82 335 57 407 b 125 701 57 569 82 643 l 42 783 l 135 876 l 221 792 b 435 853 281 831 356 853 b 650 792 515 853 589 831 l 736 876 l 828 783 l 746 701 b 813 489 788 643 813 569 m 435 335 b 589 489 528 335 589 407 b 435 643 589 569 528 643 b 281 489 343 643 281 569 b 435 335 281 407 343 335 "},"*":{"ha":614,"x_min":0,"x_max":0,"o":"m 440 658 l 553 542 l 383 418 l 307 561 l 232 418 l 61 542 l 174 658 l 14 685 l 79 886 l 225 814 l 201 975 l 413 975 l 389 814 l 535 886 l 600 685 "},"°":{"ha":494,"x_min":0,"x_max":0,"o":"m 247 975 b 481 740 393 975 481 867 b 247 507 481 615 393 507 b 14 740 101 507 14 615 b 247 975 14 867 101 975 m 247 639 b 350 740 310 639 350 679 b 247 843 350 801 310 843 b 144 740 185 843 144 801 b 247 639 144 679 185 639 "},"#":{"ha":1046,"x_min":0,"x_max":0,"o":"m 836 558 l 794 392 l 947 392 l 947 221 l 751 221 l 697 3 l 494 3 l 549 221 l 382 221 l 328 3 l 126 3 l 181 221 l 28 221 l 28 392 l 222 392 l 264 558 l 99 558 l 99 729 l 307 729 l 361 947 l 564 947 l 510 729 l 676 729 l 731 947 l 933 947 l 878 729 l 1018 729 l 1018 558 m 633 558 l 467 558 l 425 392 l 592 392 "},"®":{"ha":1118,"x_min":0,"x_max":0,"o":"m 864 571 b 768 426 864 496 828 450 l 879 254 l 681 254 l 589 403 l 472 403 l 472 254 l 285 254 l 285 731 l 657 731 b 864 571 794 731 864 679 m 472 524 l 617 524 b 676 568 657 524 676 538 b 617 607 676 597 657 607 l 472 607 m 558 992 b 1090 486 851 992 1090 775 b 558 -21 1090 197 851 -21 b 28 486 267 -21 28 197 b 558 992 28 775 267 992 m 558 72 b 985 486 794 72 985 250 b 558 900 985 721 794 900 b 132 486 324 900 132 721 b 558 72 132 250 324 72 "},"©":{"ha":1119,"x_min":0,"x_max":0,"o":"m 561 357 b 679 449 635 357 669 394 l 875 449 b 561 232 854 288 715 232 b 244 486 399 232 244 294 b 561 739 244 676 399 739 b 875 524 715 739 854 685 l 679 524 b 561 615 669 578 635 615 b 438 486 478 615 438 567 b 561 357 438 404 478 357 m 560 992 b 1092 486 853 992 1092 775 b 560 -21 1092 197 853 -21 b 28 486 267 -21 28 197 b 560 992 28 775 267 992 m 560 72 b 986 486 796 72 986 250 b 560 900 986 721 796 900 b 133 486 324 900 133 721 b 560 72 133 250 324 72 "},"%":{"ha":1561,"x_min":0,"x_max":0,"o":"m 693 713 b 360 435 693 518 565 435 b 28 713 156 435 28 518 b 360 992 28 908 156 992 b 693 713 565 992 693 908 m 360 589 b 453 713 428 589 453 639 b 360 838 453 788 428 838 b 268 713 293 838 268 788 b 360 589 268 639 293 589 m 1200 538 b 1533 258 1406 538 1533 453 b 1200 -21 1533 64 1406 -21 b 868 258 996 -21 868 64 b 1200 538 868 453 996 538 m 1200 133 b 1293 258 1268 133 1293 183 b 1200 383 1293 333 1268 383 b 1108 258 1133 383 1108 333 b 1200 133 1108 183 1133 133 m 1181 972 l 563 0 l 379 0 l 999 972 "},"‰":{"ha":2260,"x_min":0,"x_max":0,"o":"m 693 713 b 361 435 693 518 565 435 b 28 713 156 435 28 518 b 361 992 28 908 156 992 b 693 713 565 992 693 908 m 361 589 b 453 713 429 589 453 639 b 361 838 453 788 429 838 b 268 713 293 838 268 788 b 361 589 268 639 293 589 m 1201 538 b 1533 258 1406 538 1533 453 b 1201 -21 1533 64 1406 -21 b 868 258 996 -21 868 64 b 1201 538 868 453 996 538 m 1201 133 b 1293 258 1269 133 1293 183 b 1201 383 1293 333 1269 383 b 1108 258 1133 383 1108 333 b 1201 133 1108 183 1133 133 m 1899 538 b 2232 258 2104 538 2232 453 b 1899 -21 2232 64 2104 -21 b 1567 258 1694 -21 1567 64 b 1899 538 1567 453 1694 538 m 1899 133 b 1992 258 1967 133 1992 183 b 1899 383 1992 333 1967 383 b 1807 258 1832 383 1807 333 b 1899 133 1807 183 1832 133 m 1182 972 l 563 0 l 381 0 l 999 972 "},"№":{"ha":2013,"x_min":0,"x_max":0,"o":"m 1304 399 l 1971 399 l 1971 201 l 1304 201 m 1638 488 b 1304 739 1436 488 1304 558 b 1638 992 1304 921 1436 992 b 1971 739 1839 992 1971 921 b 1638 488 1971 558 1839 488 m 1638 838 b 1546 739 1572 838 1546 807 b 1638 642 1546 672 1572 642 b 1731 739 1703 642 1731 672 b 1638 838 1731 807 1703 838 m 846 972 l 1228 972 l 1228 0 l 813 0 l 438 529 l 438 0 l 56 0 l 56 972 l 471 972 l 846 442 "},"§":{"ha":1179,"x_min":0,"x_max":0,"o":"m 1040 143 b 1093 14 1074 110 1093 68 b 585 -271 1093 -196 881 -271 b 103 32 239 -271 103 -157 l 451 32 b 589 -62 451 -31 488 -62 b 725 7 693 -62 725 -32 b 503 89 725 57 667 57 b 14 379 213 146 14 181 b 139 578 14 464 68 528 b 86 707 106 611 86 653 b 594 992 86 917 299 992 b 1076 689 939 992 1076 878 l 728 689 b 590 783 728 751 690 783 b 454 715 485 783 454 753 b 675 632 454 664 511 664 b 1165 342 965 575 1165 540 b 1040 143 1165 257 1111 193 m 689 288 b 850 244 744 275 800 261 b 864 285 858 256 864 269 b 490 433 864 356 806 357 b 329 476 433 447 379 460 b 315 436 321 465 315 451 b 689 288 315 365 374 364 "},"&":{"ha":1329,"x_min":0,"x_max":0,"o":"m 958 0 b 900 46 938 15 918 31 b 569 -21 810 4 700 -21 b 14 288 194 -21 14 94 b 271 543 14 428 135 500 b 158 736 197 608 158 661 b 599 992 158 926 357 992 b 1039 749 840 992 1039 926 b 722 504 1039 586 889 529 b 794 450 746 488 771 468 b 903 361 831 421 867 392 b 925 485 918 400 925 442 l 1196 485 b 1099 201 1196 385 1163 286 b 1343 0 1188 128 1272 58 m 599 796 b 503 722 536 796 503 765 b 569 624 503 692 529 660 b 704 726 643 640 704 668 b 599 796 704 768 675 796 m 585 176 b 710 192 632 176 674 182 b 463 388 610 269 533 329 b 419 422 447 400 433 411 b 360 314 375 392 360 356 b 585 176 360 231 433 176 "},"\"":{"ha":685,"x_min":0,"x_max":0,"o":"m 28 972 l 318 972 l 278 515 l 68 515 m 657 972 l 618 515 l 407 515 l 367 972 "},"“":{"ha":721,"x_min":0,"x_max":0,"o":"m 693 972 l 601 635 l 338 635 l 483 972 m 383 972 l 292 635 l 28 635 l 172 972 "},"”":{"ha":722,"x_min":0,"x_max":0,"o":"m 383 972 l 239 635 l 28 635 l 121 972 m 694 972 l 549 635 l 339 635 l 431 972 "},"@":{"ha":1563,"x_min":0,"x_max":0,"o":"m 799 1018 b 1535 439 1207 1018 1535 814 b 1208 14 1535 135 1369 14 b 953 160 1057 14 978 68 b 693 17 908 68 822 17 b 368 347 508 17 368 135 b 693 679 368 561 504 679 b 913 597 790 679 863 650 l 913 663 l 1178 663 l 1178 279 b 1235 164 1178 200 1178 164 b 1342 426 1294 164 1342 247 b 799 856 1342 740 1103 856 b 235 356 454 856 235 679 b 810 -149 235 44 449 -149 b 1201 -57 985 -149 1129 -96 l 1201 -232 b 810 -310 1157 -254 1000 -310 b 28 356 347 -310 28 -54 b 799 1018 28 772 354 1018 m 782 201 b 935 349 886 201 935 261 b 782 494 935 436 886 494 b 635 347 679 494 635 428 b 782 201 635 267 679 201 "},"•":{"ha":585,"x_min":0,"x_max":0,"o":"m 292 257 b 42 486 144 257 42 340 b 292 715 42 632 144 715 b 543 486 439 715 543 632 b 292 257 543 340 439 257 "},"æ":{"ha":1640,"x_min":0,"x_max":0,"o":"m 972 301 b 1144 183 990 232 1043 183 b 1289 251 1215 183 1260 210 l 1600 251 b 1144 -21 1553 47 1351 -21 b 754 106 1000 -21 851 17 b 376 -21 668 22 524 -21 b 28 204 168 -21 28 51 b 622 456 28 376 132 479 l 622 475 b 500 576 622 542 599 576 b 374 515 425 576 383 561 l 68 515 b 500 760 94 696 253 760 b 838 693 636 760 757 747 b 1138 760 924 740 1032 760 b 1611 301 1361 760 1632 646 m 622 283 b 356 210 450 292 356 286 b 453 143 356 153 408 143 b 622 203 526 143 583 169 m 1290 447 b 1138 556 1271 515 1225 556 b 974 447 1040 556 992 510 "},"œ":{"ha":1713,"x_min":0,"x_max":0,"o":"m 1043 301 b 1215 183 1061 232 1114 183 b 1360 251 1286 183 1331 210 l 1672 251 b 1215 -21 1624 47 1422 -21 b 875 68 1093 -21 968 6 b 531 -21 782 4 656 -21 b 28 369 289 -21 28 69 b 531 760 28 671 289 760 b 874 672 656 760 781 736 b 1208 760 967 735 1089 760 b 1683 301 1432 760 1703 646 m 1208 556 b 1044 447 1111 556 1064 510 l 1361 447 b 1208 556 1342 515 1296 556 m 531 197 b 704 369 651 197 704 269 b 531 543 704 471 651 543 b 357 369 411 543 357 471 b 531 197 357 269 411 197 "},"đ":{"ha":1111,"x_min":0,"x_max":0,"o":"m 1125 889 l 1125 757 l 1025 757 l 1025 0 l 683 0 l 683 76 b 425 -21 625 14 540 -21 b 28 369 197 -21 28 118 b 425 740 28 621 197 740 b 683 653 540 740 625 711 l 683 757 l 511 757 l 511 889 l 683 889 l 683 972 l 1025 972 l 1025 889 m 531 197 b 710 369 653 197 710 267 b 531 543 710 472 653 543 b 357 369 410 543 357 465 b 531 197 357 275 410 197 "},"ð":{"ha":1076,"x_min":0,"x_max":0,"o":"m 697 919 b 1049 407 893 833 1049 678 b 518 -21 1049 97 843 -21 b 28 335 233 -21 28 68 b 450 656 28 582 242 656 b 733 565 618 656 714 589 b 496 781 703 675 611 742 l 331 668 l 258 774 l 326 819 b 133 831 261 828 196 831 l 165 1018 b 549 971 276 1018 414 1007 l 721 1089 l 793 985 l 697 919 m 522 208 b 699 328 599 208 699 218 b 522 440 699 438 593 440 b 361 328 451 440 361 428 b 522 208 361 228 444 208 "},"ø":{"ha":1061,"x_min":0,"x_max":0,"o":"m 918 644 b 1033 369 989 583 1033 494 b 531 -21 1033 69 772 -21 b 253 29 435 -21 338 -7 l 161 -56 l 78 35 l 143 96 b 28 369 72 157 28 244 b 531 760 28 671 289 760 b 808 711 626 760 725 746 l 900 796 l 985 706 l 918 644 m 357 369 b 367 303 357 346 360 322 l 611 529 b 531 543 589 538 563 543 b 357 369 411 543 357 471 m 531 197 b 704 369 651 197 704 269 b 694 438 704 394 701 417 l 450 211 b 531 197 472 201 499 197 "},"þ":{"ha":1067,"x_min":0,"x_max":0,"o":"m 642 760 b 1039 369 871 760 1039 621 b 642 -21 1039 118 871 -21 b 383 76 526 -21 442 14 l 383 -232 l 42 -232 l 42 972 l 383 972 l 383 664 b 642 760 442 726 526 760 m 536 197 b 710 369 657 197 710 275 b 536 543 710 465 657 543 b 357 371 414 543 357 474 b 536 197 357 267 414 197 "},"ħ":{"ha":1065,"x_min":0,"x_max":0,"o":"m 704 740 b 1024 457 915 740 1024 660 l 1024 0 l 681 0 l 681 388 b 564 531 681 469 665 531 b 440 388 463 531 440 471 l 440 0 l 99 0 l 99 757 l 0 757 l 0 889 l 99 889 l 99 972 l 440 972 l 440 889 l 613 889 l 613 757 l 440 757 l 440 643 b 704 740 476 686 554 740 "},"ŧ":{"ha":751,"x_min":0,"x_max":0,"o":"m 493 556 l 493 503 l 672 503 l 672 371 l 493 371 l 493 308 b 710 219 493 218 525 210 l 710 -1 b 556 -12 664 -7 607 -12 b 151 308 253 -12 151 43 l 151 371 l 14 371 l 14 503 l 151 503 l 151 556 l 14 556 l 14 740 l 151 740 l 151 932 l 493 932 l 493 740 l 710 740 l 710 556 "},"ŋ":{"ha":1008,"x_min":0,"x_max":0,"o":"m 647 760 b 967 457 860 760 967 660 l 967 53 b 629 -258 967 -164 913 -258 b 499 -253 568 -258 549 -257 l 499 -24 b 625 53 593 -25 625 -21 l 625 388 b 507 531 625 469 608 531 b 385 388 406 531 385 471 l 385 0 l 42 0 l 42 740 l 385 740 l 385 647 b 647 760 421 697 499 760 "},"ł":{"ha":582,"x_min":0,"x_max":0,"o":"m 568 592 l 463 542 l 463 0 l 119 0 l 119 375 l 14 324 l 14 511 l 119 563 l 119 1025 l 463 1025 l 463 729 l 568 779 "},"Æ":{"ha":1896,"x_min":0,"x_max":0,"o":"m 1854 0 l 829 0 l 829 138 l 475 138 l 396 0 l 0 0 l 621 972 l 1842 972 l 1842 722 l 1211 722 l 1211 611 l 1801 611 l 1801 374 l 1211 374 l 1211 250 l 1854 250 m 618 388 l 829 388 l 829 722 l 808 722 "},"Œ":{"ha":1858,"x_min":0,"x_max":0,"o":"m 1817 250 l 1817 0 l 679 0 b 28 486 360 0 28 68 b 679 972 28 903 360 972 l 1804 972 l 1804 722 l 1174 722 l 1174 611 l 1764 611 l 1764 374 l 1174 374 l 1174 250 m 792 722 b 414 486 596 722 414 725 b 792 250 414 246 596 250 "},"Đ":{"ha":1332,"x_min":0,"x_max":0,"o":"m 679 972 b 1304 486 1000 972 1304 903 b 679 0 1304 68 1000 0 l 119 0 l 119 393 l 14 393 l 14 578 l 119 578 l 119 972 l 679 972 m 565 250 b 918 486 761 250 918 246 b 565 722 918 726 761 722 l 501 722 l 501 578 l 760 578 l 760 393 l 501 393 l 501 250 l 565 250 "},"Ø":{"ha":1372,"x_min":0,"x_max":0,"o":"m 1194 840 b 1344 486 1286 760 1344 646 b 686 -21 1344 106 1015 -21 b 332 40 563 -21 439 -3 l 231 -54 l 114 71 l 178 132 b 28 486 86 211 28 326 b 686 992 28 865 357 992 b 1040 932 810 992 933 974 l 1142 1026 l 1258 900 l 1194 840 m 414 486 b 435 371 414 443 421 404 l 814 721 b 686 743 778 736 735 743 b 414 486 508 743 414 642 m 686 228 b 958 486 864 228 958 329 b 938 601 958 529 951 568 l 558 250 b 686 228 594 236 638 228 "},"Þ":{"ha":1224,"x_min":0,"x_max":0,"o":"m 774 853 b 1196 517 1063 853 1196 736 b 747 171 1196 257 1015 171 l 438 171 l 438 0 l 56 0 l 56 972 l 438 972 l 438 853 l 774 853 m 692 419 b 815 515 775 419 815 449 b 692 603 815 576 775 603 l 438 603 l 438 419 l 692 419 "},"Ħ":{"ha":1436,"x_min":0,"x_max":0,"o":"m 1422 690 l 1318 690 l 1318 0 l 936 0 l 936 361 l 501 361 l 501 0 l 119 0 l 119 690 l 14 690 l 14 875 l 119 875 l 119 972 l 501 972 l 501 875 l 936 875 l 936 972 l 1318 972 l 1318 875 l 1422 875 m 936 690 l 501 690 l 501 638 l 936 638 "},"Ŧ":{"ha":1174,"x_min":0,"x_max":0,"o":"m 778 722 l 778 578 l 972 578 l 972 393 l 778 393 l 778 0 l 396 0 l 396 393 l 201 393 l 201 578 l 396 578 l 396 722 l 28 722 l 28 972 l 1146 972 l 1146 722 "},"Ŋ":{"ha":1283,"x_min":0,"x_max":0,"o":"m 1228 972 l 1228 0 b 883 -299 1228 -242 1122 -299 b 726 -292 806 -299 768 -294 l 726 -62 b 846 0 811 -68 846 -64 l 438 539 l 438 0 l 56 0 l 56 972 l 457 972 l 846 458 l 846 972 "},"Ł":{"ha":1160,"x_min":0,"x_max":0,"o":"m 1132 0 l 119 0 l 119 239 l 14 188 l 14 389 l 119 440 l 119 972 l 501 972 l 501 625 l 760 751 l 760 550 l 501 425 l 501 250 l 1132 250 "},"ŉ":{"ha":1278,"x_min":0,"x_max":0,"o":"m 357 972 l 211 635 l 0 635 l 93 972 m 917 760 b 1236 457 1128 760 1236 660 l 1236 0 l 893 0 l 893 388 b 776 531 893 469 878 531 b 653 388 675 531 653 471 l 653 0 l 311 0 l 311 740 l 653 740 l 653 647 b 917 760 689 697 767 760 "},"ß":{"ha":1169,"x_min":0,"x_max":0,"o":"m 914 533 b 1142 296 1039 510 1142 450 b 664 -21 1142 21 921 -21 b 458 0 590 -21 503 -7 l 458 208 b 611 190 481 203 540 190 b 797 304 715 190 797 210 b 619 396 797 386 719 396 l 458 396 l 458 619 l 607 619 b 732 699 694 619 732 643 b 554 793 732 768 669 793 b 385 628 439 793 385 760 l 385 0 l 42 0 l 42 640 b 558 992 42 919 265 992 b 1056 722 831 992 1056 950 b 914 533 1056 622 994 565 "},"˛":{"ha":503,"x_min":0,"x_max":0,"o":"m 318 -92 b 447 -112 318 -140 401 -129 l 447 -251 b 288 -274 421 -260 360 -274 b 56 -153 175 -274 56 -251 b 192 0 56 -69 140 -24 l 447 0 b 318 -92 415 -10 318 -37 "},"":{"ha":494,"x_min":0,"x_max":0,"o":"m 439 -92 l 292 -324 l 56 -324 l 110 -92 "},"¸":{"ha":554,"x_min":0,"x_max":0,"o":"m 260 -62 b 499 -172 356 -40 499 -42 b 236 -322 499 -294 374 -322 b 56 -300 171 -322 106 -312 l 56 -187 b 181 -211 83 -199 138 -211 b 267 -174 240 -211 267 -201 b 90 -156 267 -125 154 -147 l 90 -81 l 168 25 l 326 25 l 260 -62 "},"ą":{"ha":1004,"x_min":0,"x_max":0,"o":"m 963 0 b 835 -92 931 -10 835 -37 b 963 -112 835 -140 918 -129 l 963 -251 b 804 -274 936 -260 878 -274 b 572 -153 692 -274 572 -251 b 708 0 572 -69 657 -24 l 621 0 l 621 74 b 350 -21 571 25 483 -21 b 28 204 140 -21 28 51 b 621 456 28 376 132 479 l 621 475 b 500 576 621 542 597 576 b 374 515 425 576 383 561 l 68 515 b 500 760 94 696 253 760 b 963 475 744 760 963 718 l 963 0 m 621 283 b 356 210 450 292 356 286 b 451 143 356 153 408 143 b 621 203 525 143 583 169 "},"ç":{"ha":1044,"x_min":0,"x_max":0,"o":"m 531 197 b 696 303 622 197 675 239 l 1017 303 b 582 -19 982 75 788 -8 l 549 -62 b 788 -172 644 -40 788 -42 b 526 -322 788 -294 664 -322 b 346 -300 461 -322 396 -312 l 346 -187 b 471 -211 374 -199 426 -211 b 556 -174 531 -211 556 -201 b 379 -156 556 -125 443 -147 l 379 -81 l 428 -15 b 28 369 221 10 28 111 b 531 760 28 671 289 760 b 1017 438 754 760 979 683 l 696 438 b 531 543 675 501 622 543 b 357 369 411 543 357 471 b 531 197 357 269 411 197 "},"ę":{"ha":1022,"x_min":0,"x_max":0,"o":"m 353 301 b 525 183 371 232 424 183 b 669 250 596 183 642 210 l 982 250 b 699 -3 949 106 835 29 b 586 -92 657 -15 586 -46 b 715 -112 586 -140 671 -129 l 715 -251 b 556 -274 690 -260 629 -274 b 324 -153 444 -274 324 -251 b 429 -15 324 -85 381 -42 b 28 369 219 10 28 119 b 518 760 28 656 278 760 b 993 301 742 760 1013 646 m 518 556 b 354 446 421 556 374 510 l 671 446 b 518 556 651 514 606 556 "},"į":{"ha":425,"x_min":0,"x_max":0,"o":"m 39 740 l 381 740 l 381 0 b 251 -92 349 -10 251 -37 b 381 -112 251 -140 335 -129 l 381 -251 b 221 -274 354 -260 293 -274 b -11 -153 108 -274 -11 -251 b 125 0 -11 -69 74 -24 l 39 0 m 210 796 b 35 956 107 796 35 854 b 210 1117 35 1058 107 1117 b 385 956 313 1117 385 1058 b 210 796 385 854 313 796 "},"ş":{"ha":1010,"x_min":0,"x_max":0,"o":"m 996 236 b 564 -19 996 49 824 -12 l 532 -62 b 771 -172 628 -40 771 -42 b 508 -322 771 -294 646 -322 b 328 -300 443 -322 379 -312 l 328 -187 b 453 -211 356 -199 410 -211 b 539 -174 513 -211 539 -201 b 363 -156 539 -125 426 -147 l 363 -81 l 408 -18 b 14 240 156 -3 14 76 l 365 240 b 519 163 365 167 444 163 b 646 215 585 163 646 171 b 389 286 646 269 569 263 b 43 514 174 313 43 350 b 492 760 43 686 214 760 b 954 515 807 760 954 665 l 619 515 b 489 578 619 564 558 578 b 365 532 422 578 365 571 b 557 476 365 488 429 492 b 996 236 806 449 996 439 "},"ų":{"ha":1007,"x_min":0,"x_max":0,"o":"m 836 -92 b 965 -112 836 -140 919 -129 l 965 -251 b 806 -274 939 -260 878 -274 b 574 -153 693 -274 574 -251 b 710 0 574 -69 658 -24 l 624 0 l 624 92 b 361 -19 588 43 510 -19 b 42 283 149 -19 42 81 l 42 740 l 383 740 l 383 353 b 501 210 383 271 400 210 b 624 353 601 210 624 269 l 624 740 l 965 740 l 965 0 b 836 -92 933 -10 836 -37 "},"Ą":{"ha":1333,"x_min":0,"x_max":0,"o":"m 883 138 l 450 138 l 396 0 l 0 0 l 450 972 l 883 972 l 1333 0 b 1204 -92 1301 -10 1204 -37 b 1333 -112 1204 -140 1288 -129 l 1333 -251 b 1174 -274 1307 -260 1246 -274 b 942 -153 1061 -274 942 -251 b 1078 0 942 -69 1026 -24 l 938 0 m 783 388 l 667 685 l 550 388 "},"Ç":{"ha":1314,"x_min":0,"x_max":0,"o":"m 660 228 b 896 411 807 228 878 303 l 1286 411 b 743 -18 1247 119 1015 1 l 708 -62 b 947 -174 804 -40 947 -42 b 685 -322 947 -294 824 -322 b 504 -301 619 -322 556 -312 l 504 -187 b 629 -211 532 -199 586 -211 b 715 -174 690 -211 715 -201 b 539 -156 715 -125 603 -147 l 539 -81 l 585 -18 b 28 486 290 0 28 135 b 660 992 28 867 338 992 b 1286 560 967 992 1243 882 l 896 560 b 660 743 878 669 807 743 b 414 486 493 743 414 647 b 660 228 414 324 493 228 "},"˜":{"ha":760,"x_min":0,"x_max":0,"o":"m 704 986 b 550 758 704 885 686 758 b 289 819 418 758 346 819 b 253 767 257 819 253 794 l 56 767 b 210 993 56 890 93 993 b 475 932 340 993 411 932 b 508 986 510 932 508 961 "},"`":{"ha":572,"x_min":0,"x_max":0,"o":"m 517 774 l 253 774 l 56 979 l 399 979 "},"´":{"ha":572,"x_min":0,"x_max":0,"o":"m 517 979 l 319 774 l 56 774 l 175 979 "},"ˇ":{"ha":883,"x_min":0,"x_max":0,"o":"m 828 979 l 622 774 l 261 774 l 56 979 l 346 979 l 442 872 l 538 979 "},"˙":{"ha":371,"x_min":0,"x_max":0,"o":"m 185 1026 b 315 897 257 1026 315 968 b 185 768 315 825 257 768 b 56 897 114 768 56 825 b 185 1026 56 968 114 1026 "},"¯":{"ha":782,"x_min":0,"x_max":0,"o":"m 726 960 l 726 789 l 56 789 l 56 960 "},"Ę":{"ha":1122,"x_min":0,"x_max":0,"o":"m 951 -92 b 1081 -112 951 -140 1035 -129 l 1081 -251 b 921 -274 1054 -260 993 -274 b 689 -153 808 -274 689 -251 b 825 0 689 -69 774 -24 l 56 0 l 56 972 l 1068 972 l 1068 721 l 438 721 l 438 611 l 1029 611 l 1029 374 l 438 374 l 438 250 l 1081 250 l 1081 0 b 951 -92 1049 -10 951 -37 "},"ˆ":{"ha":885,"x_min":0,"x_max":0,"o":"m 829 774 l 538 774 l 443 881 l 347 774 l 56 774 l 263 979 l 622 979 "},"˚":{"ha":500,"x_min":0,"x_max":0,"o":"m 250 1136 b 444 940 364 1136 444 1050 b 250 746 444 831 364 746 b 56 940 138 746 56 831 b 250 1136 56 1050 138 1136 m 250 878 b 314 940 289 878 314 903 b 250 1004 314 979 289 1004 b 188 940 211 1004 188 979 b 250 878 188 903 211 878 "},"˘":{"ha":704,"x_min":0,"x_max":0,"o":"m 649 979 b 353 767 649 832 540 767 b 56 979 164 767 56 832 l 257 979 b 353 911 263 933 289 911 b 447 979 415 911 442 933 "},"¨":{"ha":725,"x_min":0,"x_max":0,"o":"m 186 1026 b 315 897 257 1026 315 968 b 186 768 315 825 257 768 b 56 897 114 768 56 825 b 186 1026 56 968 114 1026 m 540 1026 b 669 897 611 1026 669 968 b 540 768 669 825 611 768 b 410 897 468 768 410 825 b 540 1026 410 968 468 1026 "},"Ų":{"ha":1244,"x_min":0,"x_max":0,"o":"m 1189 972 l 1189 400 b 881 -1 1189 135 1060 35 b 760 -92 843 -12 760 -42 b 889 -112 760 -140 844 -129 l 889 -251 b 729 -274 863 -260 803 -274 b 497 -153 617 -274 497 -251 b 594 -21 497 -89 547 -47 b 56 400 306 -18 56 31 l 56 972 l 438 972 l 438 418 b 622 228 438 276 492 228 b 807 418 754 228 807 276 l 807 972 "},"˝":{"ha":972,"x_min":0,"x_max":0,"o":"m 517 979 l 319 774 l 56 774 l 175 979 m 917 979 l 719 774 l 456 774 l 574 979 "}," ":{"ha":361,"x_min":0,"x_max":0,"o":""},"Ð":{"ha":1332,"x_min":0,"x_max":0,"o":"m 679 972 b 1304 486 1000 972 1304 903 b 679 0 1304 68 1000 0 l 119 0 l 119 393 l 14 393 l 14 578 l 119 578 l 119 972 l 679 972 m 565 250 b 918 486 761 250 918 246 b 565 722 918 726 761 722 l 501 722 l 501 578 l 760 578 l 760 393 l 501 393 l 501 250 l 565 250 "},"'":{"ha":346,"x_min":0,"x_max":0,"o":"m 318 972 l 279 515 l 68 515 l 28 972 "},"„":{"ha":722,"x_min":0,"x_max":0,"o":"m 383 204 l 239 -133 l 28 -133 l 121 204 m 694 204 l 549 -133 l 339 -133 l 431 204 "},"‚":{"ha":411,"x_min":0,"x_max":0,"o":"m 383 204 l 238 -133 l 28 -133 l 119 204 "},"‘":{"ha":411,"x_min":0,"x_max":0,"o":"m 383 972 l 292 635 l 28 635 l 174 972 "},"’":{"ha":411,"x_min":0,"x_max":0,"o":"m 383 972 l 238 635 l 28 635 l 119 972 "},"Á":{"ha":1333,"x_min":0,"x_max":0,"o":"m 883 138 l 450 138 l 396 0 l 0 0 l 450 972 l 883 972 l 1333 0 l 938 0 m 783 388 l 667 685 l 550 388 m 994 1257 l 797 1051 l 533 1051 l 653 1257 "},"Ğ":{"ha":1346,"x_min":0,"x_max":0,"o":"m 1314 578 b 694 -21 1347 158 1085 -21 b 28 486 365 -21 28 96 b 674 992 28 875 353 992 b 1292 647 971 992 1232 888 l 901 647 b 674 743 865 700 804 743 b 414 486 494 743 414 647 b 699 228 414 324 525 228 b 929 340 850 228 911 294 l 646 340 l 646 578 l 1314 578 m 969 1257 b 674 1044 969 1110 861 1044 b 376 1257 485 1044 376 1110 l 578 1257 b 674 1189 583 1211 610 1189 b 768 1257 736 1189 763 1211 "},"Č":{"ha":1314,"x_min":0,"x_max":0,"o":"m 660 228 b 896 411 807 228 876 303 l 1286 411 b 660 -21 1243 90 967 -21 b 28 486 338 -21 28 104 b 660 992 28 867 338 992 b 1286 560 967 992 1243 881 l 896 560 b 660 743 876 669 807 743 b 414 486 493 743 414 647 b 660 228 414 324 493 228 m 1043 1257 l 838 1051 l 476 1051 l 271 1257 l 561 1257 l 657 1150 l 753 1257 "},"À":{"ha":1333,"x_min":0,"x_max":0,"o":"m 883 138 l 450 138 l 396 0 l 0 0 l 450 972 l 883 972 l 1333 0 l 938 0 m 783 388 l 667 685 l 550 388 m 800 1051 l 536 1051 l 339 1257 l 682 1257 "},"Ĉ":{"ha":1314,"x_min":0,"x_max":0,"o":"m 660 228 b 896 411 807 228 876 303 l 1286 411 b 660 -21 1243 90 967 -21 b 28 486 338 -21 28 104 b 660 992 28 867 338 992 b 1286 560 967 992 1243 881 l 896 560 b 660 743 876 669 807 743 b 414 486 493 743 414 647 b 660 228 414 324 493 228 m 1043 1051 l 751 1051 l 657 1158 l 561 1051 l 269 1051 l 476 1257 l 836 1257 "},"Ä":{"ha":1333,"x_min":0,"x_max":0,"o":"m 883 138 l 450 138 l 396 0 l 0 0 l 450 972 l 883 972 l 1333 0 l 938 0 m 783 388 l 667 685 l 550 388 m 490 1304 b 619 1175 561 1304 619 1246 b 490 1046 619 1103 561 1046 b 360 1175 418 1046 360 1103 b 490 1304 360 1246 418 1304 m 844 1304 b 974 1175 915 1304 974 1246 b 844 1046 974 1103 915 1046 b 714 1175 772 1046 714 1103 b 844 1304 714 1246 772 1304 "},"Ă":{"ha":1333,"x_min":0,"x_max":0,"o":"m 883 138 l 450 138 l 396 0 l 0 0 l 450 972 l 883 972 l 1333 0 l 938 0 m 783 388 l 667 685 l 550 388 m 964 1257 b 668 1044 964 1110 856 1044 b 371 1257 479 1044 371 1110 l 572 1257 b 668 1189 578 1211 604 1189 b 763 1257 731 1189 757 1211 "},"Â":{"ha":1333,"x_min":0,"x_max":0,"o":"m 883 138 l 450 138 l 396 0 l 0 0 l 450 972 l 883 972 l 1333 0 l 938 0 m 783 388 l 667 685 l 550 388 m 1054 1051 l 763 1051 l 668 1158 l 572 1051 l 281 1051 l 488 1257 l 847 1257 "},"Ā":{"ha":1333,"x_min":0,"x_max":0,"o":"m 883 138 l 450 138 l 396 0 l 0 0 l 450 972 l 883 972 l 1333 0 l 938 0 m 783 388 l 667 685 l 550 388 m 1003 1238 l 1003 1067 l 332 1067 l 332 1238 "},"Å":{"ha":1333,"x_min":0,"x_max":0,"o":"m 883 138 l 450 138 l 396 0 l 0 0 l 450 972 l 883 972 l 1333 0 l 938 0 m 783 388 l 667 685 l 550 388 m 667 1414 b 861 1218 781 1414 861 1328 b 667 1024 861 1108 781 1024 b 472 1218 554 1024 472 1108 b 667 1414 472 1328 554 1414 m 667 1156 b 731 1218 706 1156 731 1181 b 667 1282 731 1257 706 1282 b 604 1218 628 1282 604 1257 b 667 1156 604 1181 628 1156 "},"Ã":{"ha":1333,"x_min":0,"x_max":0,"o":"m 883 138 l 450 138 l 396 0 l 0 0 l 450 972 l 883 972 l 1333 0 l 938 0 m 783 388 l 667 685 l 550 388 m 990 1264 b 836 1036 990 1163 972 1036 b 575 1097 704 1036 632 1097 b 539 1044 543 1097 539 1072 l 342 1044 b 496 1271 342 1168 379 1271 b 761 1210 626 1271 697 1210 b 794 1264 796 1210 794 1239 "},"Ǽ":{"ha":1896,"x_min":0,"x_max":0,"o":"m 1854 0 l 829 0 l 829 138 l 475 138 l 396 0 l 0 0 l 621 972 l 1842 972 l 1842 722 l 1211 722 l 1211 611 l 1801 611 l 1801 374 l 1211 374 l 1211 250 l 1854 250 m 618 388 l 829 388 l 829 722 l 808 722 m 1379 1257 l 1182 1051 l 918 1051 l 1038 1257 "},"Ć":{"ha":1314,"x_min":0,"x_max":0,"o":"m 660 228 b 896 411 807 228 876 303 l 1286 411 b 660 -21 1243 90 967 -21 b 28 486 338 -21 28 104 b 660 992 28 867 338 992 b 1286 560 967 992 1243 881 l 896 560 b 660 743 876 669 807 743 b 414 486 493 743 414 647 b 660 228 414 324 493 228 m 985 1257 l 788 1051 l 524 1051 l 643 1257 "},"Ċ":{"ha":1314,"x_min":0,"x_max":0,"o":"m 660 228 b 896 411 807 228 876 303 l 1286 411 b 660 -21 1243 90 967 -21 b 28 486 338 -21 28 104 b 660 992 28 867 338 992 b 1286 560 967 992 1243 881 l 896 560 b 660 743 876 669 807 743 b 414 486 493 743 414 647 b 660 228 414 324 493 228 m 656 1304 b 786 1175 728 1304 786 1246 b 656 1046 786 1103 728 1046 b 526 1175 585 1046 526 1103 b 656 1304 526 1246 585 1304 "},"Ď":{"ha":1268,"x_min":0,"x_max":0,"o":"m 614 972 b 1240 486 935 972 1240 903 b 614 0 1240 68 935 0 l 56 0 l 56 972 l 614 972 m 500 250 b 854 486 696 250 854 246 b 500 721 854 726 696 721 l 438 721 l 438 250 l 500 250 m 992 1257 l 786 1051 l 425 1051 l 219 1257 l 510 1257 l 606 1150 l 701 1257 "},"É":{"ha":1122,"x_min":0,"x_max":0,"o":"m 1081 0 l 56 0 l 56 972 l 1068 972 l 1068 721 l 438 721 l 438 611 l 1029 611 l 1029 374 l 438 374 l 438 250 l 1081 250 m 882 1257 l 685 1051 l 421 1051 l 540 1257 "},"Ĕ":{"ha":1122,"x_min":0,"x_max":0,"o":"m 1081 0 l 56 0 l 56 972 l 1068 972 l 1068 721 l 438 721 l 438 611 l 1029 611 l 1029 374 l 438 374 l 438 250 l 1081 250 m 864 1257 b 568 1044 864 1110 756 1044 b 271 1257 379 1044 271 1110 l 472 1257 b 568 1189 478 1211 504 1189 b 663 1257 631 1189 657 1211 "},"Ě":{"ha":1122,"x_min":0,"x_max":0,"o":"m 1081 0 l 56 0 l 56 972 l 1068 972 l 1068 721 l 438 721 l 438 611 l 1029 611 l 1029 374 l 438 374 l 438 250 l 1081 250 m 954 1257 l 749 1051 l 388 1051 l 182 1257 l 472 1257 l 568 1150 l 664 1257 "},"Ê":{"ha":1122,"x_min":0,"x_max":0,"o":"m 1081 0 l 56 0 l 56 972 l 1068 972 l 1068 721 l 438 721 l 438 611 l 1029 611 l 1029 374 l 438 374 l 438 250 l 1081 250 m 956 1051 l 664 1051 l 569 1158 l 474 1051 l 182 1051 l 389 1257 l 749 1257 "},"Ë":{"ha":1122,"x_min":0,"x_max":0,"o":"m 1081 0 l 56 0 l 56 972 l 1068 972 l 1068 721 l 438 721 l 438 611 l 1029 611 l 1029 374 l 438 374 l 438 250 l 1081 250 m 392 1304 b 521 1175 463 1304 521 1246 b 392 1046 521 1103 463 1046 b 261 1175 319 1046 261 1103 b 392 1304 261 1246 319 1304 m 746 1304 b 875 1175 817 1304 875 1246 b 746 1046 875 1103 817 1046 b 615 1175 674 1046 615 1103 b 746 1304 615 1246 674 1304 "},"Ė":{"ha":1122,"x_min":0,"x_max":0,"o":"m 1081 0 l 56 0 l 56 972 l 1068 972 l 1068 721 l 438 721 l 438 611 l 1029 611 l 1029 374 l 438 374 l 438 250 l 1081 250 m 567 1304 b 697 1175 639 1304 697 1246 b 567 1046 697 1103 639 1046 b 438 1175 496 1046 438 1103 b 567 1304 438 1246 496 1304 "},"È":{"ha":1122,"x_min":0,"x_max":0,"o":"m 1081 0 l 56 0 l 56 972 l 1068 972 l 1068 721 l 438 721 l 438 611 l 1029 611 l 1029 374 l 438 374 l 438 250 l 1081 250 m 729 1051 l 465 1051 l 268 1257 l 611 1257 "},"Ē":{"ha":1122,"x_min":0,"x_max":0,"o":"m 1081 0 l 56 0 l 56 972 l 1068 972 l 1068 721 l 438 721 l 438 611 l 1029 611 l 1029 374 l 438 374 l 438 250 l 1081 250 m 903 1238 l 903 1067 l 232 1067 l 232 1238 "},"Ĝ":{"ha":1346,"x_min":0,"x_max":0,"o":"m 1314 578 b 694 -21 1347 158 1085 -21 b 28 486 365 -21 28 96 b 674 992 28 875 353 992 b 1292 647 971 992 1232 888 l 901 647 b 674 743 865 700 804 743 b 414 486 494 743 414 647 b 699 228 414 324 525 228 b 929 340 850 228 911 294 l 646 340 l 646 578 l 1314 578 m 1060 1051 l 768 1051 l 674 1158 l 578 1051 l 286 1051 l 493 1257 l 853 1257 "},"Ģ":{"ha":1346,"x_min":0,"x_max":0,"o":"m 1314 578 b 694 -21 1347 158 1085 -21 b 28 486 365 -21 28 96 b 674 992 28 875 353 992 b 1292 647 971 992 1232 888 l 901 647 b 674 743 865 700 804 743 b 414 486 494 743 414 647 b 699 228 414 324 525 228 b 929 340 850 228 911 294 l 646 340 l 646 578 l 1314 578 m 864 -92 l 717 -324 l 481 -324 l 535 -92 "},"Ġ":{"ha":1346,"x_min":0,"x_max":0,"o":"m 1314 578 b 694 -21 1347 158 1085 -21 b 28 486 365 -21 28 96 b 674 992 28 875 353 992 b 1292 647 971 992 1232 888 l 901 647 b 674 743 865 700 804 743 b 414 486 494 743 414 647 b 699 228 414 324 525 228 b 929 340 850 228 911 294 l 646 340 l 646 578 l 1314 578 m 672 1304 b 803 1175 744 1304 803 1246 b 672 1046 803 1103 744 1046 b 543 1175 601 1046 543 1103 b 672 1304 543 1246 601 1304 "},"Ĥ":{"ha":1310,"x_min":0,"x_max":0,"o":"m 1254 972 l 1254 0 l 872 0 l 872 360 l 438 360 l 438 0 l 56 0 l 56 972 l 438 972 l 438 638 l 872 638 l 872 972 m 1042 1051 l 750 1051 l 656 1158 l 560 1051 l 268 1051 l 475 1257 l 835 1257 "},"İ":{"ha":493,"x_min":0,"x_max":0,"o":"m 438 972 l 438 0 l 56 0 l 56 972 m 246 1304 b 376 1175 318 1304 376 1246 b 246 1046 376 1103 318 1046 b 117 1175 175 1046 117 1103 b 246 1304 117 1246 175 1304 "},"Ĳ":{"ha":1647,"x_min":0,"x_max":0,"o":"m 438 972 l 438 0 l 56 0 l 56 972 m 1592 972 l 1592 421 b 1060 -21 1592 22 1353 -21 b 535 376 756 -21 535 43 l 535 514 l 893 513 l 893 393 b 1060 228 893 292 928 228 b 1210 421 1188 228 1210 313 l 1210 972 "},"Ĵ":{"ha":1140,"x_min":0,"x_max":0,"o":"m 1085 972 l 1085 421 b 553 -21 1085 22 846 -21 b 28 376 249 -21 28 43 l 28 514 l 386 513 l 386 393 b 553 228 386 292 421 228 b 703 421 681 228 703 313 l 703 972 m 1283 1051 l 992 1051 l 897 1158 l 801 1051 l 510 1051 l 717 1257 l 1076 1257 "},"Ķ":{"ha":1254,"x_min":0,"x_max":0,"o":"m 553 351 l 438 247 l 438 0 l 56 0 l 56 972 l 438 972 l 438 664 l 761 972 l 1235 972 l 810 585 l 1254 0 l 804 0 m 788 -92 l 640 -324 l 404 -324 l 458 -92 "},"Ĺ":{"ha":1094,"x_min":0,"x_max":0,"o":"m 1067 0 l 56 0 l 56 972 l 438 972 l 438 250 l 1067 250 m 597 1257 l 400 1051 l 136 1051 l 256 1257 "},"Ľ":{"ha":1094,"x_min":0,"x_max":0,"o":"m 1067 0 l 56 0 l 56 972 l 438 972 l 438 250 l 1067 250 m 957 972 l 811 635 l 601 635 l 693 972 "},"Ļ":{"ha":1094,"x_min":0,"x_max":0,"o":"m 1067 0 l 56 0 l 56 972 l 438 972 l 438 250 l 1067 250 m 753 -92 l 606 -324 l 369 -324 l 424 -92 "},"Ŀ":{"ha":1094,"x_min":0,"x_max":0,"o":"m 747 694 b 911 529 838 694 911 619 b 747 364 911 438 838 364 b 582 529 656 364 582 438 b 747 694 582 619 656 694 m 1067 0 l 56 0 l 56 972 l 438 972 l 438 250 l 1067 250 "},"Ń":{"ha":1283,"x_min":0,"x_max":0,"o":"m 1228 972 l 1228 0 l 825 0 l 438 528 l 438 0 l 56 0 l 56 972 l 457 972 l 846 443 l 846 972 m 956 1257 l 758 1051 l 494 1051 l 614 1257 "},"Ň":{"ha":1283,"x_min":0,"x_max":0,"o":"m 1228 972 l 1228 0 l 825 0 l 438 528 l 438 0 l 56 0 l 56 972 l 457 972 l 846 443 l 846 972 m 1028 1257 l 822 1051 l 461 1051 l 256 1257 l 546 1257 l 642 1150 l 738 1257 "},"Ņ":{"ha":1283,"x_min":0,"x_max":0,"o":"m 1228 972 l 1228 0 l 825 0 l 438 528 l 438 0 l 56 0 l 56 972 l 457 972 l 846 443 l 846 972 m 833 -92 l 686 -324 l 450 -324 l 504 -92 "},"Ñ":{"ha":1283,"x_min":0,"x_max":0,"o":"m 1228 972 l 1228 0 l 825 0 l 438 528 l 438 0 l 56 0 l 56 972 l 457 972 l 846 443 l 846 972 m 967 1264 b 813 1036 967 1163 949 1036 b 551 1097 681 1036 608 1097 b 515 1044 519 1097 515 1072 l 318 1044 b 472 1271 318 1168 356 1271 b 738 1210 603 1271 674 1210 b 771 1264 772 1210 771 1239 "},"Ó":{"ha":1374,"x_min":0,"x_max":0,"o":"m 686 992 b 1346 486 1015 992 1346 865 b 686 -21 1346 106 1015 -21 b 28 486 357 -21 28 106 b 686 992 28 865 357 992 m 686 228 b 958 486 864 228 958 329 b 686 743 958 642 864 743 b 414 486 508 743 414 642 b 686 228 414 329 508 228 m 1000 1257 l 803 1051 l 539 1051 l 658 1257 "},"Ŏ":{"ha":1374,"x_min":0,"x_max":0,"o":"m 686 992 b 1346 486 1015 992 1346 865 b 686 -21 1346 106 1015 -21 b 28 486 357 -21 28 106 b 686 992 28 865 357 992 m 686 228 b 958 486 864 228 958 329 b 686 743 958 642 864 743 b 414 486 508 743 414 642 b 686 228 414 329 508 228 m 983 1257 b 688 1044 983 1110 875 1044 b 390 1257 499 1044 390 1110 l 592 1257 b 688 1189 597 1211 624 1189 b 782 1257 750 1189 776 1211 "},"Ô":{"ha":1374,"x_min":0,"x_max":0,"o":"m 686 992 b 1346 486 1015 992 1346 865 b 686 -21 1346 106 1015 -21 b 28 486 357 -21 28 106 b 686 992 28 865 357 992 m 686 228 b 958 486 864 228 958 329 b 686 743 958 642 864 743 b 414 486 508 743 414 642 b 686 228 414 329 508 228 m 1074 1051 l 782 1051 l 688 1158 l 592 1051 l 300 1051 l 507 1257 l 867 1257 "},"Ö":{"ha":1374,"x_min":0,"x_max":0,"o":"m 686 992 b 1346 486 1015 992 1346 865 b 686 -21 1346 106 1015 -21 b 28 486 357 -21 28 106 b 686 992 28 865 357 992 m 686 228 b 958 486 864 228 958 329 b 686 743 958 642 864 743 b 414 486 508 743 414 642 b 686 228 414 329 508 228 m 510 1304 b 639 1175 581 1304 639 1246 b 510 1046 639 1103 581 1046 b 379 1175 438 1046 379 1103 b 510 1304 379 1246 438 1304 m 864 1304 b 993 1175 935 1304 993 1246 b 864 1046 993 1103 935 1046 b 733 1175 792 1046 733 1103 b 864 1304 733 1246 792 1304 "},"Ò":{"ha":1374,"x_min":0,"x_max":0,"o":"m 686 992 b 1346 486 1015 992 1346 865 b 686 -21 1346 106 1015 -21 b 28 486 357 -21 28 106 b 686 992 28 865 357 992 m 686 228 b 958 486 864 228 958 329 b 686 743 958 642 864 743 b 414 486 508 743 414 642 b 686 228 414 329 508 228 m 833 1051 l 569 1051 l 372 1257 l 715 1257 "},"Ő":{"ha":1374,"x_min":0,"x_max":0,"o":"m 686 992 b 1346 486 1015 992 1346 865 b 686 -21 1346 106 1015 -21 b 28 486 357 -21 28 106 b 686 992 28 865 357 992 m 686 228 b 958 486 864 228 958 329 b 686 743 958 642 864 743 b 414 486 508 743 414 642 b 686 228 414 329 508 228 m 814 1257 l 617 1051 l 353 1051 l 472 1257 m 1214 1257 l 1017 1051 l 753 1051 l 871 1257 "},"Ō":{"ha":1374,"x_min":0,"x_max":0,"o":"m 686 992 b 1346 486 1015 992 1346 865 b 686 -21 1346 106 1015 -21 b 28 486 357 -21 28 106 b 686 992 28 865 357 992 m 686 228 b 958 486 864 228 958 329 b 686 743 958 642 864 743 b 414 486 508 743 414 642 b 686 228 414 329 508 228 m 1022 1238 l 1022 1067 l 351 1067 l 351 1238 "},"Ǿ":{"ha":1372,"x_min":0,"x_max":0,"o":"m 1194 840 b 1344 486 1286 760 1344 646 b 686 -21 1344 106 1015 -21 b 332 40 563 -21 439 -3 l 231 -54 l 114 71 l 178 132 b 28 486 86 211 28 326 b 686 992 28 865 357 992 b 1040 932 810 992 933 974 l 1142 1026 l 1258 900 l 1194 840 m 414 486 b 435 371 414 443 421 404 l 814 721 b 686 743 778 736 735 743 b 414 486 508 743 414 642 m 686 228 b 958 486 864 228 958 329 b 938 601 958 529 951 568 l 558 250 b 686 228 594 236 638 228 m 1000 1257 l 803 1051 l 539 1051 l 658 1257 "},"Õ":{"ha":1374,"x_min":0,"x_max":0,"o":"m 686 992 b 1346 486 1015 992 1346 865 b 686 -21 1346 106 1015 -21 b 28 486 357 -21 28 106 b 686 992 28 865 357 992 m 686 228 b 958 486 864 228 958 329 b 686 743 958 642 864 743 b 414 486 508 743 414 642 b 686 228 414 329 508 228 m 1011 1264 b 857 1036 1011 1163 993 1036 b 596 1097 725 1036 653 1097 b 560 1044 564 1097 560 1072 l 363 1044 b 517 1271 363 1168 400 1271 b 782 1210 647 1271 718 1210 b 815 1264 817 1210 815 1239 "},"Ŕ":{"ha":1239,"x_min":0,"x_max":0,"o":"m 647 303 l 438 303 l 438 0 l 56 0 l 56 972 l 786 972 b 1210 644 1067 972 1210 867 b 1014 350 1210 494 1133 400 l 1239 0 l 836 0 m 438 551 l 704 551 b 828 640 786 551 828 578 b 704 721 828 700 786 721 l 438 721 m 906 1257 l 708 1051 l 444 1051 l 564 1257 "},"Ř":{"ha":1239,"x_min":0,"x_max":0,"o":"m 647 303 l 438 303 l 438 0 l 56 0 l 56 972 l 786 972 b 1210 644 1067 972 1210 867 b 1014 350 1210 494 1133 400 l 1239 0 l 836 0 m 438 551 l 704 551 b 828 640 786 551 828 578 b 704 721 828 700 786 721 l 438 721 m 992 1257 l 786 1051 l 425 1051 l 219 1257 l 510 1257 l 606 1150 l 701 1257 "},"Ŗ":{"ha":1239,"x_min":0,"x_max":0,"o":"m 647 303 l 438 303 l 438 0 l 56 0 l 56 972 l 786 972 b 1210 644 1067 972 1210 867 b 1014 350 1210 494 1133 400 l 1239 0 l 836 0 m 438 551 l 704 551 b 828 640 786 551 828 578 b 704 721 828 700 786 721 l 438 721 m 825 -92 l 678 -324 l 442 -324 l 496 -92 "},"Ś":{"ha":1235,"x_min":0,"x_max":0,"o":"m 665 617 b 1221 308 996 583 1221 567 b 611 -21 1221 51 993 -21 b 14 315 172 -21 14 104 l 413 315 b 633 214 413 240 476 214 b 814 279 760 214 814 232 b 467 369 814 331 774 331 b 40 675 164 408 40 474 b 597 992 40 889 221 992 b 1157 675 1011 992 1157 858 l 771 675 b 594 758 771 731 722 758 b 418 692 461 758 418 732 b 665 617 418 639 489 635 m 917 1257 l 719 1051 l 456 1051 l 575 1257 "},"Š":{"ha":1235,"x_min":0,"x_max":0,"o":"m 665 617 b 1221 308 996 583 1221 567 b 611 -21 1221 51 993 -21 b 14 315 172 -21 14 104 l 413 315 b 633 214 413 240 476 214 b 814 279 760 214 814 232 b 467 369 814 331 774 331 b 40 675 164 408 40 474 b 597 992 40 889 221 992 b 1157 675 1011 992 1157 858 l 771 675 b 594 758 771 731 722 758 b 418 692 461 758 418 732 b 665 617 418 639 489 635 m 1003 1257 l 797 1051 l 436 1051 l 231 1257 l 521 1257 l 617 1150 l 713 1257 "},"Ş":{"ha":1235,"x_min":0,"x_max":0,"o":"m 1221 308 b 694 -19 1221 71 1026 -8 l 661 -62 b 900 -174 757 -40 900 -42 b 638 -322 900 -294 776 -322 b 457 -301 572 -322 508 -312 l 457 -187 b 582 -211 485 -199 539 -211 b 668 -174 642 -211 668 -201 b 492 -156 668 -125 556 -147 l 492 -81 l 538 -19 b 14 315 154 -6 14 117 l 413 315 b 632 214 413 240 476 214 b 814 279 760 214 814 232 b 467 369 814 332 772 331 b 40 675 164 408 40 475 b 597 992 40 889 219 992 b 1157 675 1011 992 1157 858 l 771 675 b 593 758 771 731 722 758 b 418 692 460 758 418 732 b 665 617 418 640 488 635 b 1221 308 994 583 1221 567 "},"Ș":{"ha":1235,"x_min":0,"x_max":0,"o":"m 665 617 b 1221 308 996 583 1221 567 b 611 -21 1221 51 993 -21 b 14 315 172 -21 14 104 l 413 315 b 633 214 413 240 476 214 b 814 279 760 214 814 232 b 467 369 814 331 774 331 b 40 675 164 408 40 474 b 597 992 40 889 221 992 b 1157 675 1011 992 1157 858 l 771 675 b 594 758 771 731 722 758 b 418 692 461 758 418 732 b 665 617 418 639 489 635 m 794 -92 l 647 -324 l 411 -324 l 465 -92 "},"Ŝ":{"ha":1235,"x_min":0,"x_max":0,"o":"m 665 617 b 1221 308 996 583 1221 567 b 611 -21 1221 51 993 -21 b 14 315 172 -21 14 104 l 413 315 b 633 214 413 240 476 214 b 814 279 760 214 814 232 b 467 369 814 331 774 331 b 40 675 164 408 40 474 b 597 992 40 889 221 992 b 1157 675 1011 992 1157 858 l 771 675 b 594 758 771 731 722 758 b 418 692 461 758 418 732 b 665 617 418 639 489 635 m 1004 1051 l 713 1051 l 618 1158 l 522 1051 l 231 1051 l 438 1257 l 797 1257 "},"Ť":{"ha":1174,"x_min":0,"x_max":0,"o":"m 1146 721 l 778 721 l 778 0 l 396 0 l 396 721 l 28 721 l 28 972 l 1146 972 m 972 1257 l 767 1051 l 406 1051 l 200 1257 l 490 1257 l 586 1150 l 682 1257 "},"Ţ":{"ha":1174,"x_min":0,"x_max":0,"o":"m 1146 721 l 778 721 l 778 0 l 396 0 l 396 721 l 28 721 l 28 972 l 1146 972 m 750 -92 l 603 -324 l 367 -324 l 421 -92 "},"Ú":{"ha":1244,"x_min":0,"x_max":0,"o":"m 1189 972 l 1189 400 b 622 -21 1189 18 924 -21 b 56 400 322 -21 56 18 l 56 972 l 438 972 l 438 418 b 622 228 438 276 492 228 b 807 418 754 228 807 276 l 807 972 m 950 1257 l 753 1051 l 489 1051 l 608 1257 "},"Ŭ":{"ha":1244,"x_min":0,"x_max":0,"o":"m 1189 972 l 1189 400 b 622 -21 1189 18 924 -21 b 56 400 322 -21 56 18 l 56 972 l 438 972 l 438 418 b 622 228 438 276 492 228 b 807 418 754 228 807 276 l 807 972 m 919 1257 b 624 1044 919 1110 811 1044 b 326 1257 435 1044 326 1110 l 528 1257 b 624 1189 533 1211 560 1189 b 718 1257 686 1189 713 1211 "},"Û":{"ha":1244,"x_min":0,"x_max":0,"o":"m 1189 972 l 1189 400 b 622 -21 1189 18 924 -21 b 56 400 322 -21 56 18 l 56 972 l 438 972 l 438 418 b 622 228 438 276 492 228 b 807 418 754 228 807 276 l 807 972 m 1010 1051 l 718 1051 l 624 1158 l 528 1051 l 236 1051 l 443 1257 l 803 1257 "},"Ü":{"ha":1244,"x_min":0,"x_max":0,"o":"m 1189 972 l 1189 400 b 622 -21 1189 18 924 -21 b 56 400 322 -21 56 18 l 56 972 l 438 972 l 438 418 b 622 228 438 276 492 228 b 807 418 754 228 807 276 l 807 972 m 446 1304 b 575 1175 517 1304 575 1246 b 446 1046 575 1103 517 1046 b 315 1175 374 1046 315 1103 b 446 1304 315 1246 374 1304 m 800 1304 b 929 1175 871 1304 929 1246 b 800 1046 929 1103 871 1046 b 669 1175 728 1046 669 1103 b 800 1304 669 1246 728 1304 "},"Ù":{"ha":1244,"x_min":0,"x_max":0,"o":"m 1189 972 l 1189 400 b 622 -21 1189 18 924 -21 b 56 400 322 -21 56 18 l 56 972 l 438 972 l 438 418 b 622 228 438 276 492 228 b 807 418 754 228 807 276 l 807 972 m 783 1051 l 519 1051 l 322 1257 l 665 1257 "},"Ű":{"ha":1244,"x_min":0,"x_max":0,"o":"m 1189 972 l 1189 400 b 622 -21 1189 18 924 -21 b 56 400 322 -21 56 18 l 56 972 l 438 972 l 438 418 b 622 228 438 276 492 228 b 807 418 754 228 807 276 l 807 972 m 736 1257 l 539 1051 l 275 1051 l 394 1257 m 1136 1257 l 939 1051 l 675 1051 l 793 1257 "},"Ū":{"ha":1244,"x_min":0,"x_max":0,"o":"m 1189 972 l 1189 400 b 622 -21 1189 18 924 -21 b 56 400 322 -21 56 18 l 56 972 l 438 972 l 438 418 b 622 228 438 276 492 228 b 807 418 754 228 807 276 l 807 972 m 958 1238 l 958 1067 l 288 1067 l 288 1238 "},"Ů":{"ha":1244,"x_min":0,"x_max":0,"o":"m 1189 972 l 1189 400 b 622 -21 1189 18 924 -21 b 56 400 322 -21 56 18 l 56 972 l 438 972 l 438 418 b 622 228 438 276 492 228 b 807 418 754 228 807 276 l 807 972 m 622 1414 b 817 1218 736 1414 817 1328 b 622 1024 817 1108 736 1024 b 428 1218 510 1024 428 1108 b 622 1414 428 1328 510 1414 m 622 1156 b 686 1218 661 1156 686 1181 b 622 1282 686 1257 661 1282 b 560 1218 583 1282 560 1257 b 622 1156 560 1181 583 1156 "},"Ũ":{"ha":1244,"x_min":0,"x_max":0,"o":"m 1189 972 l 1189 400 b 622 -21 1189 18 924 -21 b 56 400 322 -21 56 18 l 56 972 l 438 972 l 438 418 b 622 228 438 276 492 228 b 807 418 754 228 807 276 l 807 972 m 947 1264 b 793 1036 947 1163 929 1036 b 532 1097 661 1036 589 1097 b 496 1044 500 1097 496 1072 l 299 1044 b 453 1271 299 1168 336 1271 b 718 1210 583 1271 654 1210 b 751 1264 753 1210 751 1239 "},"Ẃ":{"ha":1742,"x_min":0,"x_max":0,"o":"m 1742 972 l 1424 0 l 1017 0 l 871 536 l 725 0 l 318 0 l 0 972 l 396 972 l 554 390 l 713 972 l 1029 972 l 1188 390 l 1346 972 m 1199 1257 l 1001 1051 l 738 1051 l 857 1257 "},"Ŵ":{"ha":1742,"x_min":0,"x_max":0,"o":"m 1742 972 l 1424 0 l 1017 0 l 871 536 l 725 0 l 318 0 l 0 972 l 396 972 l 554 390 l 713 972 l 1029 972 l 1188 390 l 1346 972 m 1258 1051 l 967 1051 l 872 1158 l 776 1051 l 485 1051 l 692 1257 l 1051 1257 "},"Ẅ":{"ha":1742,"x_min":0,"x_max":0,"o":"m 1742 972 l 1424 0 l 1017 0 l 871 536 l 725 0 l 318 0 l 0 972 l 396 972 l 554 390 l 713 972 l 1029 972 l 1188 390 l 1346 972 m 694 1304 b 824 1175 765 1304 824 1246 b 694 1046 824 1103 765 1046 b 564 1175 622 1046 564 1103 b 694 1304 564 1246 622 1304 m 1049 1304 b 1178 1175 1119 1304 1178 1246 b 1049 1046 1178 1103 1119 1046 b 918 1175 976 1046 918 1103 b 1049 1304 918 1246 976 1304 "},"Ẁ":{"ha":1742,"x_min":0,"x_max":0,"o":"m 1742 972 l 1424 0 l 1017 0 l 871 536 l 725 0 l 318 0 l 0 972 l 396 972 l 554 390 l 713 972 l 1029 972 l 1188 390 l 1346 972 m 1004 1051 l 740 1051 l 543 1257 l 886 1257 "},"Ý":{"ha":1256,"x_min":0,"x_max":0,"o":"m 1269 972 l 819 344 l 819 0 l 436 0 l 436 344 l -14 972 l 404 972 l 628 610 l 851 972 m 956 1257 l 758 1051 l 494 1051 l 614 1257 "},"Ŷ":{"ha":1256,"x_min":0,"x_max":0,"o":"m 1269 972 l 819 344 l 819 0 l 436 0 l 436 344 l -14 972 l 404 972 l 628 610 l 851 972 m 1015 1051 l 724 1051 l 629 1158 l 533 1051 l 242 1051 l 449 1257 l 808 1257 "},"Ÿ":{"ha":1256,"x_min":0,"x_max":0,"o":"m 1269 972 l 819 344 l 819 0 l 436 0 l 436 344 l -14 972 l 404 972 l 628 610 l 851 972 m 451 1304 b 581 1175 522 1304 581 1246 b 451 1046 581 1103 522 1046 b 321 1175 379 1046 321 1103 b 451 1304 321 1246 379 1304 m 806 1304 b 935 1175 876 1304 935 1246 b 806 1046 935 1103 876 1046 b 675 1175 733 1046 675 1103 b 806 1304 675 1246 733 1304 "},"Ỳ":{"ha":1256,"x_min":0,"x_max":0,"o":"m 1269 972 l 819 344 l 819 0 l 436 0 l 436 344 l -14 972 l 404 972 l 628 610 l 851 972 m 775 1051 l 511 1051 l 314 1257 l 657 1257 "},"Ź":{"ha":1200,"x_min":0,"x_max":0,"o":"m 1172 250 l 1172 0 l 28 0 l 28 197 l 601 721 l 54 721 l 54 972 l 1158 972 l 1158 774 l 585 250 m 914 1257 l 717 1051 l 453 1051 l 572 1257 "},"Ż":{"ha":1200,"x_min":0,"x_max":0,"o":"m 1172 250 l 1172 0 l 28 0 l 28 197 l 601 721 l 54 721 l 54 972 l 1158 972 l 1158 774 l 585 250 m 626 1304 b 757 1175 699 1304 757 1246 b 626 1046 757 1103 699 1046 b 497 1175 556 1046 497 1103 b 626 1304 497 1246 556 1304 "},"Ž":{"ha":1200,"x_min":0,"x_max":0,"o":"m 1172 250 l 1172 0 l 28 0 l 28 197 l 601 721 l 54 721 l 54 972 l 1158 972 l 1158 774 l 585 250 m 1014 1257 l 808 1051 l 447 1051 l 242 1257 l 532 1257 l 628 1150 l 724 1257 "},"á":{"ha":1004,"x_min":0,"x_max":0,"o":"m 500 760 b 963 474 744 760 963 718 l 963 0 l 621 0 l 621 74 b 350 -21 571 24 483 -21 b 28 204 140 -21 28 51 b 621 456 28 376 132 479 l 621 474 b 500 576 621 542 597 576 b 374 515 425 576 383 561 l 68 515 b 500 760 94 696 253 760 m 621 283 b 356 210 450 292 356 286 b 451 143 356 153 407 143 b 621 203 525 143 583 168 m 838 1021 l 640 815 l 376 815 l 496 1021 "},"ă":{"ha":1004,"x_min":0,"x_max":0,"o":"m 500 760 b 963 474 744 760 963 718 l 963 0 l 621 0 l 621 74 b 350 -21 571 24 483 -21 b 28 204 140 -21 28 51 b 621 456 28 376 132 479 l 621 474 b 500 576 621 542 597 576 b 374 515 425 576 383 561 l 68 515 b 500 760 94 696 253 760 m 621 283 b 356 210 450 292 356 286 b 451 143 356 153 407 143 b 621 203 525 143 583 168 m 819 1021 b 524 808 819 874 711 808 b 226 1021 335 808 226 874 l 428 1021 b 524 953 433 975 460 953 b 618 1021 586 953 613 975 "},"â":{"ha":1004,"x_min":0,"x_max":0,"o":"m 500 760 b 963 474 744 760 963 718 l 963 0 l 621 0 l 621 74 b 350 -21 571 24 483 -21 b 28 204 140 -21 28 51 b 621 456 28 376 132 479 l 621 474 b 500 576 621 542 597 576 b 374 515 425 576 383 561 l 68 515 b 500 760 94 696 253 760 m 621 283 b 356 210 450 292 356 286 b 451 143 356 153 407 143 b 621 203 525 143 583 168 m 910 815 l 618 815 l 524 922 l 428 815 l 136 815 l 343 1021 l 703 1021 "},"ä":{"ha":1004,"x_min":0,"x_max":0,"o":"m 500 760 b 963 474 744 760 963 718 l 963 0 l 621 0 l 621 74 b 350 -21 571 24 483 -21 b 28 204 140 -21 28 51 b 621 456 28 376 132 479 l 621 474 b 500 576 621 542 597 576 b 374 515 425 576 383 561 l 68 515 b 500 760 94 696 253 760 m 621 283 b 356 210 450 292 356 286 b 451 143 356 153 407 143 b 621 203 525 143 583 168 m 347 1068 b 476 939 418 1068 476 1010 b 347 810 476 867 418 810 b 217 939 275 810 217 867 b 347 1068 217 1010 275 1068 m 701 1068 b 831 939 772 1068 831 1010 b 701 810 831 867 772 810 b 571 939 629 810 571 867 b 701 1068 571 1010 629 1068 "},"à":{"ha":1004,"x_min":0,"x_max":0,"o":"m 500 760 b 963 474 744 760 963 718 l 963 0 l 621 0 l 621 74 b 350 -21 571 24 483 -21 b 28 204 140 -21 28 51 b 621 456 28 376 132 479 l 621 474 b 500 576 621 542 597 576 b 374 515 425 576 383 561 l 68 515 b 500 760 94 696 253 760 m 621 283 b 356 210 450 292 356 286 b 451 143 356 153 407 143 b 621 203 525 143 583 168 m 671 815 l 407 815 l 210 1021 l 553 1021 "},"å":{"ha":1004,"x_min":0,"x_max":0,"o":"m 500 760 b 963 474 744 760 963 718 l 963 0 l 621 0 l 621 74 b 350 -21 571 24 483 -21 b 28 204 140 -21 28 51 b 621 456 28 376 132 479 l 621 474 b 500 576 621 542 597 576 b 374 515 425 576 383 561 l 68 515 b 500 760 94 696 253 760 m 621 283 b 356 210 450 292 356 286 b 451 143 356 153 407 143 b 621 203 525 143 583 168 m 524 1192 b 718 996 638 1192 718 1106 b 524 801 718 886 638 801 b 329 996 411 801 329 886 b 524 1192 329 1106 411 1192 m 524 933 b 588 996 563 933 588 958 b 524 1060 588 1035 563 1060 b 461 996 485 1060 461 1035 b 524 933 461 958 485 933 "},"ã":{"ha":1004,"x_min":0,"x_max":0,"o":"m 500 760 b 963 474 744 760 963 718 l 963 0 l 621 0 l 621 74 b 350 -21 571 24 483 -21 b 28 204 140 -21 28 51 b 621 456 28 376 132 479 l 621 474 b 500 576 621 542 597 576 b 374 515 425 576 383 561 l 68 515 b 500 760 94 696 253 760 m 621 283 b 356 210 450 292 356 286 b 451 143 356 153 407 143 b 621 203 525 143 583 168 m 847 1028 b 693 800 847 926 829 800 b 432 861 561 800 489 861 b 396 808 400 861 396 836 l 199 808 b 353 1035 199 932 236 1035 b 618 974 483 1035 554 974 b 651 1028 653 974 651 1003 "},"ā":{"ha":1004,"x_min":0,"x_max":0,"o":"m 500 760 b 963 474 744 760 963 718 l 963 0 l 621 0 l 621 74 b 350 -21 571 24 483 -21 b 28 204 140 -21 28 51 b 621 456 28 376 132 479 l 621 474 b 500 576 621 542 597 576 b 374 515 425 576 383 561 l 68 515 b 500 760 94 696 253 760 m 621 283 b 356 210 450 292 356 286 b 451 143 356 153 407 143 b 621 203 525 143 583 168 m 858 1001 l 858 831 l 188 831 l 188 1001 "},"ǽ":{"ha":1640,"x_min":0,"x_max":0,"o":"m 972 301 b 1144 183 990 232 1043 183 b 1289 251 1215 183 1260 210 l 1600 251 b 1144 -21 1553 47 1351 -21 b 754 106 1000 -21 851 17 b 376 -21 668 22 524 -21 b 28 204 168 -21 28 51 b 622 456 28 376 132 479 l 622 475 b 500 576 622 542 599 576 b 374 515 425 576 383 561 l 68 515 b 500 760 94 696 253 760 b 838 693 636 760 757 747 b 1138 760 924 740 1032 760 b 1611 301 1361 760 1632 646 m 622 283 b 356 210 450 292 356 286 b 453 143 356 153 408 143 b 622 203 526 143 583 169 m 1290 447 b 1138 556 1271 515 1225 556 b 974 447 1040 556 992 510 m 1147 1021 l 950 815 l 686 815 l 806 1021 "},"ć":{"ha":1044,"x_min":0,"x_max":0,"o":"m 532 197 b 696 303 622 197 675 239 l 1017 303 b 532 -21 981 56 754 -21 b 28 369 289 -21 28 69 b 532 760 28 671 289 760 b 1017 438 754 760 981 683 l 696 438 b 532 543 675 501 622 543 b 357 369 411 543 357 469 b 532 197 357 269 411 197 m 850 1021 l 653 815 l 389 815 l 508 1021 "},"č":{"ha":1044,"x_min":0,"x_max":0,"o":"m 532 197 b 696 303 622 197 675 239 l 1017 303 b 532 -21 981 56 754 -21 b 28 369 289 -21 28 69 b 532 760 28 671 289 760 b 1017 438 754 760 981 683 l 696 438 b 532 543 675 501 622 543 b 357 369 411 543 357 469 b 532 197 357 269 411 197 m 908 1021 l 703 815 l 342 815 l 136 1021 l 426 1021 l 522 914 l 618 1021 "},"ĉ":{"ha":1044,"x_min":0,"x_max":0,"o":"m 532 197 b 696 303 622 197 675 239 l 1017 303 b 532 -21 981 56 754 -21 b 28 369 289 -21 28 69 b 532 760 28 671 289 760 b 1017 438 754 760 981 683 l 696 438 b 532 543 675 501 622 543 b 357 369 411 543 357 469 b 532 197 357 269 411 197 m 910 815 l 618 815 l 524 922 l 428 815 l 136 815 l 343 1021 l 703 1021 "},"ċ":{"ha":1044,"x_min":0,"x_max":0,"o":"m 532 197 b 696 303 622 197 675 239 l 1017 303 b 532 -21 981 56 754 -21 b 28 369 289 -21 28 69 b 532 760 28 671 289 760 b 1017 438 754 760 981 683 l 696 438 b 532 543 675 501 622 543 b 357 369 411 543 357 469 b 532 197 357 269 411 197 m 522 1068 b 653 939 594 1068 653 1010 b 522 810 653 867 594 810 b 393 939 451 810 393 867 b 522 1068 393 1010 451 1068 "},"ď":{"ha":1368,"x_min":0,"x_max":0,"o":"m 28 369 b 425 760 28 621 197 760 b 683 664 540 760 625 726 l 683 972 l 1026 972 l 1026 0 l 683 0 l 683 75 b 425 -21 625 13 540 -21 b 28 369 197 -21 28 118 m 357 369 b 531 197 357 275 410 197 b 710 369 653 197 710 267 b 531 543 710 472 653 543 b 357 369 410 543 357 465 m 1438 972 l 1292 635 l 1082 635 l 1174 972 "},"é":{"ha":1022,"x_min":0,"x_max":0,"o":"m 353 301 b 525 183 371 232 424 183 b 669 250 596 183 642 210 l 982 250 b 525 -21 935 47 732 -21 b 28 369 281 -21 28 83 b 518 760 28 656 278 760 b 993 301 742 760 1013 646 m 518 556 b 354 446 421 556 374 510 l 671 446 b 518 556 651 514 606 556 m 825 1021 l 628 815 l 364 815 l 483 1021 "},"ĕ":{"ha":1022,"x_min":0,"x_max":0,"o":"m 353 301 b 525 183 371 232 424 183 b 669 250 596 183 642 210 l 982 250 b 525 -21 935 47 732 -21 b 28 369 281 -21 28 83 b 518 760 28 656 278 760 b 993 301 742 760 1013 646 m 518 556 b 354 446 421 556 374 510 l 671 446 b 518 556 651 514 606 556 m 815 1021 b 519 808 815 874 707 808 b 222 1021 331 808 222 874 l 424 1021 b 519 953 429 975 456 953 b 614 1021 582 953 608 975 "},"ê":{"ha":1022,"x_min":0,"x_max":0,"o":"m 353 301 b 525 183 371 232 424 183 b 669 250 596 183 642 210 l 982 250 b 525 -21 935 47 732 -21 b 28 369 281 -21 28 83 b 518 760 28 656 278 760 b 993 301 742 760 1013 646 m 518 556 b 354 446 421 556 374 510 l 671 446 b 518 556 651 514 606 556 m 903 815 l 611 815 l 517 922 l 421 815 l 129 815 l 336 1021 l 696 1021 "},"ě":{"ha":1022,"x_min":0,"x_max":0,"o":"m 353 301 b 525 183 371 232 424 183 b 669 250 596 183 642 210 l 982 250 b 525 -21 935 47 732 -21 b 28 369 281 -21 28 83 b 518 760 28 656 278 760 b 993 301 742 760 1013 646 m 518 556 b 354 446 421 556 374 510 l 671 446 b 518 556 651 514 606 556 m 904 1021 l 699 815 l 338 815 l 132 1021 l 422 1021 l 518 914 l 614 1021 "},"ë":{"ha":1022,"x_min":0,"x_max":0,"o":"m 353 301 b 525 183 371 232 424 183 b 669 250 596 183 642 210 l 982 250 b 525 -21 935 47 732 -21 b 28 369 281 -21 28 83 b 518 760 28 656 278 760 b 993 301 742 760 1013 646 m 518 556 b 354 446 421 556 374 510 l 671 446 b 518 556 651 514 606 556 m 340 1068 b 469 939 411 1068 469 1010 b 340 810 469 867 411 810 b 210 939 268 810 210 867 b 340 1068 210 1010 268 1068 m 694 1068 b 824 939 765 1068 824 1010 b 694 810 824 867 765 810 b 564 939 622 810 564 867 b 694 1068 564 1010 622 1068 "},"ė":{"ha":1022,"x_min":0,"x_max":0,"o":"m 353 301 b 525 183 371 232 424 183 b 669 250 596 183 642 210 l 982 250 b 525 -21 935 47 732 -21 b 28 369 281 -21 28 83 b 518 760 28 656 278 760 b 993 301 742 760 1013 646 m 518 556 b 354 446 421 556 374 510 l 671 446 b 518 556 651 514 606 556 m 517 1068 b 647 939 589 1068 647 1010 b 517 810 647 867 589 810 b 388 939 446 810 388 867 b 517 1068 388 1010 446 1068 "},"è":{"ha":1022,"x_min":0,"x_max":0,"o":"m 353 301 b 525 183 371 232 424 183 b 669 250 596 183 642 210 l 982 250 b 525 -21 935 47 732 -21 b 28 369 281 -21 28 83 b 518 760 28 656 278 760 b 993 301 742 760 1013 646 m 518 556 b 354 446 421 556 374 510 l 671 446 b 518 556 651 514 606 556 m 672 815 l 408 815 l 211 1021 l 554 1021 "},"ē":{"ha":1022,"x_min":0,"x_max":0,"o":"m 353 301 b 525 183 371 232 424 183 b 669 250 596 183 642 210 l 982 250 b 525 -21 935 47 732 -21 b 28 369 281 -21 28 83 b 518 760 28 656 278 760 b 993 301 742 760 1013 646 m 518 556 b 354 446 421 556 374 510 l 671 446 b 518 556 651 514 606 556 m 851 1001 l 851 831 l 181 831 l 181 1001 "},"ğ":{"ha":1068,"x_min":0,"x_max":0,"o":"m 1026 740 l 1026 56 b 497 -258 1026 -232 774 -258 b 47 -7 172 -258 53 -157 l 360 -7 b 497 -61 374 -56 443 -61 b 685 56 578 -61 685 -64 l 685 119 b 453 46 633 72 558 46 b 28 396 224 46 28 144 b 426 760 28 647 197 760 b 685 674 542 760 626 731 l 685 740 m 532 250 b 711 396 650 250 711 299 b 532 543 711 494 646 543 b 358 396 417 543 358 488 b 532 250 358 304 414 250 m 851 1021 b 556 808 851 874 743 808 b 258 1021 367 808 258 874 l 460 1021 b 556 953 465 975 492 953 b 650 1021 618 953 644 975 "},"ĝ":{"ha":1068,"x_min":0,"x_max":0,"o":"m 1026 740 l 1026 56 b 497 -258 1026 -232 774 -258 b 47 -7 172 -258 53 -157 l 360 -7 b 497 -61 374 -56 443 -61 b 685 56 578 -61 685 -64 l 685 119 b 453 46 633 72 558 46 b 28 396 224 46 28 144 b 426 760 28 647 197 760 b 685 674 542 760 626 731 l 685 740 m 532 250 b 711 396 650 250 711 299 b 532 543 711 494 646 543 b 358 396 417 543 358 488 b 532 250 358 304 414 250 m 942 815 l 650 815 l 556 922 l 460 815 l 168 815 l 375 1021 l 735 1021 "},"ģ":{"ha":1068,"x_min":0,"x_max":0,"o":"m 1026 740 l 1026 56 b 497 -258 1026 -232 774 -258 b 47 -7 172 -258 53 -157 l 360 -7 b 497 -61 374 -56 443 -61 b 685 56 578 -61 685 -64 l 685 119 b 453 46 633 72 558 46 b 28 396 224 46 28 144 b 426 760 28 647 197 760 b 685 674 542 760 626 731 l 685 740 m 532 250 b 711 396 650 250 711 299 b 532 543 711 494 646 543 b 358 396 417 543 358 488 b 532 250 358 304 414 250 m 760 1153 l 668 815 l 404 815 l 550 1153 "},"ġ":{"ha":1068,"x_min":0,"x_max":0,"o":"m 1026 740 l 1026 56 b 497 -258 1026 -232 774 -258 b 47 -7 172 -258 53 -157 l 360 -7 b 497 -61 374 -56 443 -61 b 685 56 578 -61 685 -64 l 685 119 b 453 46 633 72 558 46 b 28 396 224 46 28 144 b 426 760 28 647 197 760 b 685 674 542 760 626 731 l 685 740 m 532 250 b 711 396 650 250 711 299 b 532 543 711 494 646 543 b 358 396 417 543 358 488 b 532 250 358 304 414 250 m 554 1068 b 685 939 626 1068 685 1010 b 554 810 685 867 626 810 b 425 939 483 810 425 867 b 554 1068 425 1010 483 1068 "},"ĥ":{"ha":1007,"x_min":0,"x_max":0,"o":"m 646 760 b 965 457 858 760 965 660 l 965 0 l 624 0 l 624 388 b 506 531 624 469 607 531 b 383 388 406 531 383 471 l 383 0 l 42 0 l 42 972 l 383 972 l 383 649 b 646 760 419 697 497 760 m 606 1051 l 314 1051 l 219 1158 l 124 1051 l -168 1051 l 39 1257 l 399 1257 "},"ĳ":{"ha":869,"x_min":0,"x_max":0,"o":"m 213 796 b 38 956 110 796 38 854 b 213 1117 38 1058 110 1117 b 388 956 315 1117 388 1058 b 213 796 388 854 315 796 m 42 740 l 383 740 l 383 0 l 42 0 m 657 796 b 482 956 554 796 482 854 b 657 1117 482 1058 554 1117 b 832 956 760 1117 832 1058 b 657 796 832 854 760 796 m 486 740 l 828 740 l 828 53 b 490 -258 828 -165 774 -258 b 360 -253 429 -258 410 -257 l 360 -24 b 486 53 454 -25 486 -21 "},"ı":{"ha":425,"x_min":0,"x_max":0,"o":"m 42 740 l 383 740 l 383 0 l 42 0 "},"ĵ":{"ha":425,"x_min":0,"x_max":0,"o":"m 40 740 l 382 740 l 382 53 b 44 -258 382 -165 328 -258 b -86 -253 -17 -258 -36 -257 l -86 -24 b 40 53 8 -25 40 -21 m 593 815 l 301 815 l 207 922 l 111 815 l -181 815 l 26 1021 l 386 1021 "},"ķ":{"ha":1011,"x_min":0,"x_max":0,"o":"m 450 231 l 385 168 l 385 0 l 42 0 l 42 972 l 385 972 l 385 540 l 569 740 l 982 740 l 669 442 l 997 0 l 603 0 m 669 -92 l 522 -324 l 286 -324 l 340 -92 "},"ĸ":{"ha":1011,"x_min":0,"x_max":0,"o":"m 450 231 l 385 168 l 385 0 l 42 0 l 42 740 l 385 740 l 385 540 l 569 740 l 982 740 l 669 442 l 997 0 l 603 0 "},"ĺ":{"ha":425,"x_min":0,"x_max":0,"o":"m 383 1025 l 383 0 l 42 0 l 42 1025 m 547 1310 l 350 1104 l 86 1104 l 206 1310 "},"ľ":{"ha":726,"x_min":0,"x_max":0,"o":"m 383 1025 l 383 0 l 42 0 l 42 1025 m 796 972 l 650 635 l 440 635 l 532 972 "},"ļ":{"ha":425,"x_min":0,"x_max":0,"o":"m 382 1025 l 382 0 l 40 0 l 40 1025 m 376 -92 l 229 -324 l -7 -324 l 47 -92 "},"ŀ":{"ha":800,"x_min":0,"x_max":0,"o":"m 608 639 b 772 474 699 639 772 564 b 608 308 772 382 699 308 b 443 474 517 308 443 382 b 608 639 443 564 517 639 m 383 1025 l 383 0 l 42 0 l 42 1025 "},"ń":{"ha":1007,"x_min":0,"x_max":0,"o":"m 646 760 b 965 457 858 760 965 660 l 965 0 l 624 0 l 624 388 b 506 531 624 469 607 531 b 383 388 406 531 383 471 l 383 0 l 42 0 l 42 740 l 383 740 l 383 649 b 646 760 419 697 497 760 m 818 1021 l 621 815 l 357 815 l 476 1021 "},"ň":{"ha":1007,"x_min":0,"x_max":0,"o":"m 646 760 b 965 457 858 760 965 660 l 965 0 l 624 0 l 624 388 b 506 531 624 469 607 531 b 383 388 406 531 383 471 l 383 0 l 42 0 l 42 740 l 383 740 l 383 649 b 646 760 419 697 497 760 m 890 1021 l 685 815 l 324 815 l 118 1021 l 408 1021 l 504 914 l 600 1021 "},"ņ":{"ha":1007,"x_min":0,"x_max":0,"o":"m 646 760 b 965 457 858 760 965 660 l 965 0 l 624 0 l 624 388 b 506 531 624 469 607 531 b 383 388 406 531 383 471 l 383 0 l 42 0 l 42 740 l 383 740 l 383 649 b 646 760 419 697 497 760 m 696 -92 l 549 -324 l 313 -324 l 367 -92 "},"ñ":{"ha":1007,"x_min":0,"x_max":0,"o":"m 646 760 b 965 457 858 760 965 660 l 965 0 l 624 0 l 624 388 b 506 531 624 469 607 531 b 383 388 406 531 383 471 l 383 0 l 42 0 l 42 740 l 383 740 l 383 649 b 646 760 419 697 497 760 m 828 1028 b 674 800 828 926 810 800 b 413 861 542 800 469 861 b 376 808 381 861 376 836 l 179 808 b 333 1035 179 932 217 1035 b 599 974 464 1035 535 974 b 632 1028 633 974 632 1003 "},"ó":{"ha":1063,"x_min":0,"x_max":0,"o":"m 532 760 b 1035 369 774 760 1035 671 b 532 -21 1035 69 774 -21 b 28 369 290 -21 28 69 b 532 760 28 671 290 760 m 532 197 b 706 369 651 197 706 269 b 532 543 706 469 651 543 b 357 369 411 543 357 469 b 532 197 357 269 411 197 m 844 1021 l 647 815 l 383 815 l 503 1021 "},"ŏ":{"ha":1063,"x_min":0,"x_max":0,"o":"m 532 760 b 1035 369 774 760 1035 671 b 532 -21 1035 69 774 -21 b 28 369 290 -21 28 69 b 532 760 28 671 290 760 m 532 197 b 706 369 651 197 706 269 b 532 543 706 469 651 543 b 357 369 411 543 357 469 b 532 197 357 269 411 197 m 828 1021 b 532 808 828 874 719 808 b 235 1021 343 808 235 874 l 436 1021 b 532 953 442 975 468 953 b 626 1021 594 953 621 975 "},"ô":{"ha":1063,"x_min":0,"x_max":0,"o":"m 532 760 b 1035 369 774 760 1035 671 b 532 -21 1035 69 774 -21 b 28 369 290 -21 28 69 b 532 760 28 671 290 760 m 532 197 b 706 369 651 197 706 269 b 532 543 706 469 651 543 b 357 369 411 543 357 469 b 532 197 357 269 411 197 m 918 815 l 626 815 l 532 922 l 436 815 l 144 815 l 351 1021 l 711 1021 "},"ö":{"ha":1063,"x_min":0,"x_max":0,"o":"m 532 760 b 1035 369 774 760 1035 671 b 532 -21 1035 69 774 -21 b 28 369 290 -21 28 69 b 532 760 28 671 290 760 m 532 197 b 706 369 651 197 706 269 b 532 543 706 469 651 543 b 357 369 411 543 357 469 b 532 197 357 269 411 197 m 354 1068 b 483 939 425 1068 483 1010 b 354 810 483 867 425 810 b 224 939 282 810 224 867 b 354 1068 224 1010 282 1068 m 708 1068 b 838 939 779 1068 838 1010 b 708 810 838 867 779 810 b 578 939 636 810 578 867 b 708 1068 578 1010 636 1068 "},"ò":{"ha":1063,"x_min":0,"x_max":0,"o":"m 532 760 b 1035 369 774 760 1035 671 b 532 -21 1035 69 774 -21 b 28 369 290 -21 28 69 b 532 760 28 671 290 760 m 532 197 b 706 369 651 197 706 269 b 532 543 706 469 651 543 b 357 369 411 543 357 469 b 532 197 357 269 411 197 m 706 815 l 442 815 l 244 1021 l 588 1021 "},"ő":{"ha":1063,"x_min":0,"x_max":0,"o":"m 532 760 b 1035 369 774 760 1035 671 b 532 -21 1035 69 774 -21 b 28 369 290 -21 28 69 b 532 760 28 671 290 760 m 532 197 b 706 369 651 197 706 269 b 532 543 706 469 651 543 b 357 369 411 543 357 469 b 532 197 357 269 411 197 m 631 1021 l 433 815 l 169 815 l 289 1021 m 1031 1021 l 833 815 l 569 815 l 688 1021 "},"ō":{"ha":1063,"x_min":0,"x_max":0,"o":"m 532 760 b 1035 369 774 760 1035 671 b 532 -21 1035 69 774 -21 b 28 369 290 -21 28 69 b 532 760 28 671 290 760 m 532 197 b 706 369 651 197 706 269 b 532 543 706 469 651 543 b 357 369 411 543 357 469 b 532 197 357 269 411 197 m 867 1001 l 867 831 l 196 831 l 196 1001 "},"ǿ":{"ha":1061,"x_min":0,"x_max":0,"o":"m 918 644 b 1033 369 989 583 1033 494 b 531 -21 1033 69 772 -21 b 253 29 435 -21 338 -7 l 161 -56 l 78 35 l 143 96 b 28 369 72 157 28 244 b 531 760 28 671 289 760 b 808 711 626 760 725 746 l 900 796 l 985 706 l 918 644 m 357 369 b 367 303 357 346 360 322 l 611 529 b 531 543 589 538 563 543 b 357 369 411 543 357 471 m 531 197 b 704 369 651 197 704 269 b 694 438 704 394 701 417 l 450 211 b 531 197 472 201 499 197 m 844 1021 l 647 815 l 383 815 l 503 1021 "},"õ":{"ha":1063,"x_min":0,"x_max":0,"o":"m 532 760 b 1035 369 774 760 1035 671 b 532 -21 1035 69 774 -21 b 28 369 290 -21 28 69 b 532 760 28 671 290 760 m 532 197 b 706 369 651 197 706 269 b 532 543 706 469 651 543 b 357 369 411 543 357 469 b 532 197 357 269 411 197 m 856 1028 b 701 800 856 926 838 800 b 440 861 569 800 497 861 b 404 808 408 861 404 836 l 207 808 b 361 1035 207 932 244 1035 b 626 974 492 1035 563 974 b 660 1028 661 974 660 1003 "},"ŕ":{"ha":789,"x_min":0,"x_max":0,"o":"m 654 760 b 761 754 711 760 728 757 l 761 479 l 731 479 b 579 507 693 490 647 507 b 383 301 418 507 383 422 l 383 0 l 42 0 l 42 740 l 383 740 l 383 626 b 654 760 414 681 489 760 m 701 1021 l 504 815 l 240 815 l 360 1021 "},"ř":{"ha":789,"x_min":0,"x_max":0,"o":"m 653 760 b 760 754 710 760 726 757 l 760 479 l 729 479 b 578 507 692 490 646 507 b 382 301 417 507 382 422 l 382 0 l 40 0 l 40 740 l 382 740 l 382 626 b 653 760 413 681 488 760 m 786 1021 l 581 815 l 219 815 l 14 1021 l 304 1021 l 400 914 l 496 1021 "},"ŗ":{"ha":789,"x_min":0,"x_max":0,"o":"m 654 760 b 761 754 711 760 728 757 l 761 479 l 731 479 b 579 507 693 490 647 507 b 383 301 418 507 383 422 l 383 0 l 42 0 l 42 740 l 383 740 l 383 626 b 654 760 414 681 489 760 m 376 -92 l 229 -324 l -7 -324 l 47 -92 "},"ś":{"ha":1010,"x_min":0,"x_max":0,"o":"m 557 476 b 996 236 806 447 996 438 b 506 -21 996 33 796 -21 b 14 240 193 -21 14 56 l 365 240 b 519 163 365 167 444 163 b 646 215 585 163 646 171 b 389 285 646 268 569 263 b 43 514 174 313 43 350 b 492 760 43 686 214 760 b 953 515 807 760 953 665 l 619 515 b 489 578 619 564 558 578 b 365 531 422 578 365 571 b 557 476 365 488 429 492 m 818 1021 l 621 815 l 357 815 l 476 1021 "},"š":{"ha":1010,"x_min":0,"x_max":0,"o":"m 557 476 b 996 236 806 447 996 438 b 506 -21 996 33 796 -21 b 14 240 193 -21 14 56 l 365 240 b 519 163 365 167 444 163 b 646 215 585 163 646 171 b 389 285 646 268 569 263 b 43 514 174 313 43 350 b 492 760 43 686 214 760 b 953 515 807 760 953 665 l 619 515 b 489 578 619 564 558 578 b 365 531 422 578 365 571 b 557 476 365 488 429 492 m 890 1021 l 685 815 l 324 815 l 118 1021 l 408 1021 l 504 914 l 600 1021 "},"ŝ":{"ha":1010,"x_min":0,"x_max":0,"o":"m 557 476 b 996 236 806 447 996 438 b 506 -21 996 33 796 -21 b 14 240 193 -21 14 56 l 365 240 b 519 163 365 167 444 163 b 646 215 585 163 646 171 b 389 285 646 268 569 263 b 43 514 174 313 43 350 b 492 760 43 686 214 760 b 953 515 807 760 953 665 l 619 515 b 489 578 619 564 558 578 b 365 531 422 578 365 571 b 557 476 365 488 429 492 m 892 815 l 600 815 l 506 922 l 410 815 l 118 815 l 325 1021 l 685 1021 "},"ș":{"ha":1010,"x_min":0,"x_max":0,"o":"m 557 476 b 996 236 806 447 996 438 b 506 -21 996 33 796 -21 b 14 240 193 -21 14 56 l 365 240 b 519 163 365 167 444 163 b 646 215 585 163 646 171 b 389 285 646 268 569 263 b 43 514 174 313 43 350 b 492 760 43 686 214 760 b 953 515 807 760 953 665 l 619 515 b 489 578 619 564 558 578 b 365 531 422 578 365 571 b 557 476 365 488 429 492 m 696 -92 l 549 -324 l 313 -324 l 367 -92 "},"ť":{"ha":751,"x_min":0,"x_max":0,"o":"m 493 556 l 493 308 b 710 219 493 217 525 210 l 710 -1 b 556 -12 664 -7 607 -12 b 151 308 253 -12 151 43 l 151 556 l 14 556 l 14 740 l 151 740 l 151 932 l 493 932 l 493 740 l 710 740 l 710 556 m 951 1153 l 806 815 l 596 815 l 688 1153 "},"ţ":{"ha":751,"x_min":0,"x_max":0,"o":"m 493 556 l 493 308 b 710 219 493 217 525 210 l 710 -1 b 556 -12 664 -7 607 -12 b 151 308 253 -12 151 43 l 151 556 l 14 556 l 14 740 l 151 740 l 151 932 l 493 932 l 493 740 l 710 740 l 710 556 m 581 -92 l 433 -324 l 197 -324 l 251 -92 "},"ú":{"ha":1007,"x_min":0,"x_max":0,"o":"m 361 -19 b 42 283 149 -19 42 81 l 42 740 l 383 740 l 383 353 b 501 210 383 271 400 210 b 624 353 601 210 624 269 l 624 740 l 965 740 l 965 0 l 624 0 l 624 92 b 361 -19 588 43 510 -19 m 832 1021 l 635 815 l 371 815 l 490 1021 "},"ŭ":{"ha":1007,"x_min":0,"x_max":0,"o":"m 361 -19 b 42 283 149 -19 42 81 l 42 740 l 383 740 l 383 353 b 501 210 383 271 400 210 b 624 353 601 210 624 269 l 624 740 l 965 740 l 965 0 l 624 0 l 624 92 b 361 -19 588 43 510 -19 m 801 1021 b 506 808 801 874 693 808 b 208 1021 317 808 208 874 l 410 1021 b 506 953 415 975 442 953 b 600 1021 568 953 594 975 "},"û":{"ha":1007,"x_min":0,"x_max":0,"o":"m 361 -19 b 42 283 149 -19 42 81 l 42 740 l 383 740 l 383 353 b 501 210 383 271 400 210 b 624 353 601 210 624 269 l 624 740 l 965 740 l 965 0 l 624 0 l 624 92 b 361 -19 588 43 510 -19 m 892 815 l 600 815 l 506 922 l 410 815 l 118 815 l 325 1021 l 685 1021 "},"ü":{"ha":1007,"x_min":0,"x_max":0,"o":"m 361 -19 b 42 283 149 -19 42 81 l 42 740 l 383 740 l 383 353 b 501 210 383 271 400 210 b 624 353 601 210 624 269 l 624 740 l 965 740 l 965 0 l 624 0 l 624 92 b 361 -19 588 43 510 -19 m 328 1068 b 457 939 399 1068 457 1010 b 328 810 457 867 399 810 b 197 939 256 810 197 867 b 328 1068 197 1010 256 1068 m 682 1068 b 811 939 753 1068 811 1010 b 682 810 811 867 753 810 b 551 939 610 810 551 867 b 682 1068 551 1010 610 1068 "},"ű":{"ha":1007,"x_min":0,"x_max":0,"o":"m 361 -19 b 42 283 149 -19 42 81 l 42 740 l 383 740 l 383 353 b 501 210 383 271 400 210 b 624 353 601 210 624 269 l 624 740 l 965 740 l 965 0 l 624 0 l 624 92 b 361 -19 588 43 510 -19 m 604 1021 l 407 815 l 143 815 l 263 1021 m 1004 1021 l 807 815 l 543 815 l 661 1021 "},"ù":{"ha":1007,"x_min":0,"x_max":0,"o":"m 361 -19 b 42 283 149 -19 42 81 l 42 740 l 383 740 l 383 353 b 501 210 383 271 400 210 b 624 353 601 210 624 269 l 624 740 l 965 740 l 965 0 l 624 0 l 624 92 b 361 -19 588 43 510 -19 m 651 815 l 388 815 l 190 1021 l 533 1021 "},"ū":{"ha":1007,"x_min":0,"x_max":0,"o":"m 361 -19 b 42 283 149 -19 42 81 l 42 740 l 383 740 l 383 353 b 501 210 383 271 400 210 b 624 353 601 210 624 269 l 624 740 l 965 740 l 965 0 l 624 0 l 624 92 b 361 -19 588 43 510 -19 m 840 1001 l 840 831 l 169 831 l 169 1001 "},"ů":{"ha":1007,"x_min":0,"x_max":0,"o":"m 361 -19 b 42 283 149 -19 42 81 l 42 740 l 383 740 l 383 353 b 501 210 383 271 400 210 b 624 353 601 210 624 269 l 624 740 l 965 740 l 965 0 l 624 0 l 624 92 b 361 -19 588 43 510 -19 m 504 1178 b 699 982 618 1178 699 1092 b 504 788 699 872 618 788 b 310 982 392 788 310 872 b 504 1178 310 1092 392 1178 m 504 919 b 568 982 543 919 568 944 b 504 1046 568 1021 543 1046 b 442 982 465 1046 442 1021 b 504 919 442 944 465 919 "},"ũ":{"ha":1007,"x_min":0,"x_max":0,"o":"m 361 -19 b 42 283 149 -19 42 81 l 42 740 l 383 740 l 383 353 b 501 210 383 271 400 210 b 624 353 601 210 624 269 l 624 740 l 965 740 l 965 0 l 624 0 l 624 92 b 361 -19 588 43 510 -19 m 829 1028 b 675 800 829 926 811 800 b 414 861 543 800 471 861 b 378 808 382 861 378 836 l 181 808 b 335 1035 181 932 218 1035 b 600 974 465 1035 536 974 b 633 1028 635 974 633 1003 "},"ẃ":{"ha":1479,"x_min":0,"x_max":0,"o":"m 1479 740 l 1174 0 l 868 0 l 732 379 l 596 0 l 292 0 l -14 740 l 338 740 l 458 375 l 590 740 l 875 740 l 1006 375 l 1128 740 m 1067 1021 l 869 815 l 606 815 l 725 1021 "},"ŵ":{"ha":1479,"x_min":0,"x_max":0,"o":"m 1479 740 l 1174 0 l 868 0 l 732 379 l 596 0 l 292 0 l -14 740 l 338 740 l 458 375 l 590 740 l 875 740 l 1006 375 l 1128 740 m 1119 815 l 828 815 l 733 922 l 638 815 l 346 815 l 553 1021 l 913 1021 "},"ẅ":{"ha":1479,"x_min":0,"x_max":0,"o":"m 1479 740 l 1174 0 l 868 0 l 732 379 l 596 0 l 292 0 l -14 740 l 338 740 l 458 375 l 590 740 l 875 740 l 1006 375 l 1128 740 m 556 1068 b 685 939 626 1068 685 1010 b 556 810 685 867 626 810 b 425 939 483 810 425 867 b 556 1068 425 1010 483 1068 m 910 1068 b 1039 939 981 1068 1039 1010 b 910 810 1039 867 981 810 b 779 939 838 810 779 867 b 910 1068 779 1010 838 1068 "},"ẁ":{"ha":1479,"x_min":0,"x_max":0,"o":"m 1479 740 l 1174 0 l 868 0 l 732 379 l 596 0 l 292 0 l -14 740 l 338 740 l 458 375 l 590 740 l 875 740 l 1006 375 l 1128 740 m 864 815 l 600 815 l 403 1021 l 746 1021 "},"ý":{"ha":1000,"x_min":0,"x_max":0,"o":"m 1000 740 l 556 -232 l 208 -232 l 340 6 l -14 740 l 338 740 l 499 340 l 649 740 m 807 1021 l 610 815 l 346 815 l 465 1021 "},"ŷ":{"ha":1000,"x_min":0,"x_max":0,"o":"m 1000 740 l 556 -232 l 208 -232 l 340 6 l -14 740 l 338 740 l 499 340 l 649 740 m 886 815 l 594 815 l 500 922 l 404 815 l 113 815 l 319 1021 l 679 1021 "},"ÿ":{"ha":1000,"x_min":0,"x_max":0,"o":"m 1000 740 l 556 -232 l 208 -232 l 340 6 l -14 740 l 338 740 l 499 340 l 649 740 m 322 1068 b 451 939 393 1068 451 1010 b 322 810 451 867 393 810 b 192 939 250 810 192 867 b 322 1068 192 1010 250 1068 m 676 1068 b 806 939 747 1068 806 1010 b 676 810 806 867 747 810 b 546 939 604 810 546 867 b 676 1068 546 1010 604 1068 "},"ỳ":{"ha":1000,"x_min":0,"x_max":0,"o":"m 1000 740 l 556 -232 l 208 -232 l 340 6 l -14 740 l 338 740 l 499 340 l 649 740 m 626 815 l 363 815 l 165 1021 l 508 1021 "},"ź":{"ha":1001,"x_min":0,"x_max":0,"o":"m 960 210 l 960 0 l 42 0 l 42 197 l 475 529 l 69 529 l 69 740 l 946 740 l 946 543 l 514 210 m 828 1021 l 631 815 l 367 815 l 486 1021 "},"ž":{"ha":1001,"x_min":0,"x_max":0,"o":"m 960 210 l 960 0 l 42 0 l 42 197 l 475 529 l 69 529 l 69 740 l 946 740 l 946 543 l 514 210 m 900 1021 l 694 815 l 333 815 l 128 1021 l 418 1021 l 514 914 l 610 1021 "},"ż":{"ha":1001,"x_min":0,"x_max":0,"o":"m 960 210 l 960 0 l 42 0 l 42 197 l 475 529 l 69 529 l 69 740 l 946 740 l 946 543 l 514 210 m 528 1068 b 658 939 600 1068 658 1010 b 528 810 658 867 600 810 b 399 939 457 810 399 867 b 528 1068 399 1010 457 1068 "},"ſ":{"ha":697,"x_min":0,"x_max":0,"o":"m 683 818 b 478 740 575 822 478 835 l 478 0 l 136 0 l 136 556 l 14 556 l 14 740 l 136 740 b 511 1025 136 951 235 1025 b 683 1015 574 1025 631 1019 l 683 818 "},"…":{"ha":1293,"x_min":0,"x_max":0,"o":"m 207 310 b 371 144 297 310 371 235 b 207 -21 371 53 297 -21 b 42 144 115 -21 42 53 b 207 310 42 235 115 310 m 647 310 b 811 144 738 310 811 235 b 647 -21 811 53 738 -21 b 482 144 556 -21 482 53 b 647 310 482 235 556 310 m 1088 310 b 1251 144 1178 310 1251 235 b 1088 -21 1251 53 1178 -21 b 922 144 996 -21 922 53 b 1088 310 922 235 996 310 "},"‹":{"ha":358,"x_min":0,"x_max":0,"o":"m 317 486 l 176 390 l 317 296 l 317 31 l 28 250 l 28 532 l 317 751 "},"›":{"ha":360,"x_min":0,"x_max":0,"o":"m 332 532 l 332 250 l 42 31 l 42 296 l 183 390 l 42 486 l 42 751 "},"⁄":{"ha":721,"x_min":0,"x_max":0,"o":"m 721 1025 l 267 -53 l 0 -53 l 453 1025 "},"Í":{"ha":493,"x_min":0,"x_max":0,"o":"m 438 972 l 438 0 l 56 0 l 56 972 m 561 1257 l 364 1051 l 100 1051 l 219 1257 "},"Ĭ":{"ha":493,"x_min":0,"x_max":0,"o":"m 438 972 l 438 0 l 56 0 l 56 972 m 543 1257 b 247 1044 543 1110 435 1044 b -50 1257 58 1044 -50 1110 l 151 1257 b 247 1189 157 1211 183 1189 b 342 1257 310 1189 336 1211 "},"Î":{"ha":493,"x_min":0,"x_max":0,"o":"m 438 972 l 438 0 l 56 0 l 56 972 m 633 1051 l 342 1051 l 247 1158 l 151 1051 l -140 1051 l 67 1257 l 426 1257 "},"Ï":{"ha":493,"x_min":0,"x_max":0,"o":"m 438 972 l 438 0 l 56 0 l 56 972 m 71 1304 b 200 1175 142 1304 200 1246 b 71 1046 200 1103 142 1046 b -60 1175 -1 1046 -60 1103 b 71 1304 -60 1246 -1 1304 m 425 1304 b 554 1175 496 1304 554 1246 b 425 1046 554 1103 496 1046 b 294 1175 353 1046 294 1103 b 425 1304 294 1246 353 1304 "},"Ì":{"ha":493,"x_min":0,"x_max":0,"o":"m 438 972 l 438 0 l 56 0 l 56 972 m 394 1051 l 131 1051 l -67 1257 l 276 1257 "},"Ī":{"ha":493,"x_min":0,"x_max":0,"o":"m 438 972 l 438 0 l 56 0 l 56 972 m 582 1238 l 582 1067 l -89 1067 l -89 1238 "},"Į":{"ha":493,"x_min":0,"x_max":0,"o":"m 438 0 b 308 -92 406 -10 308 -39 b 438 -112 308 -140 393 -129 l 438 -251 b 278 -274 413 -260 351 -274 b 46 -153 165 -274 46 -251 b 182 0 46 -71 131 -24 l 56 0 l 56 972 l 438 972 l 438 0 "},"Ĩ":{"ha":493,"x_min":0,"x_max":0,"o":"m 438 972 l 438 0 l 56 0 l 56 972 m 571 1264 b 417 1036 571 1163 553 1036 b 156 1097 285 1036 213 1097 b 119 1044 124 1097 119 1072 l -78 1044 b 76 1271 -78 1168 -40 1271 b 342 1210 207 1271 278 1210 b 375 1264 376 1210 375 1239 "},"í":{"ha":425,"x_min":0,"x_max":0,"o":"m 42 740 l 383 740 l 383 0 l 42 0 m 540 1021 l 343 815 l 79 815 l 199 1021 "},"ĭ":{"ha":425,"x_min":0,"x_max":0,"o":"m 42 740 l 383 740 l 383 0 l 42 0 m 510 1021 b 214 808 510 874 401 808 b -83 1021 25 808 -83 874 l 118 1021 b 214 953 124 975 150 953 b 308 1021 276 953 303 975 "},"î":{"ha":425,"x_min":0,"x_max":0,"o":"m 42 740 l 383 740 l 383 0 l 42 0 m 600 815 l 308 815 l 214 922 l 118 815 l -174 815 l 33 1021 l 393 1021 "},"ï":{"ha":425,"x_min":0,"x_max":0,"o":"m 42 740 l 383 740 l 383 0 l 42 0 m 36 1068 b 165 939 107 1068 165 1010 b 36 810 165 867 107 810 b -94 939 -36 810 -94 867 b 36 1068 -94 1010 -36 1068 m 390 1068 b 519 939 461 1068 519 1010 b 390 810 519 867 461 810 b 260 939 318 810 260 867 b 390 1068 260 1010 318 1068 "},"ì":{"ha":425,"x_min":0,"x_max":0,"o":"m 42 740 l 383 740 l 383 0 l 42 0 m 350 815 l 86 815 l -111 1021 l 232 1021 "},"ī":{"ha":425,"x_min":0,"x_max":0,"o":"m 42 740 l 383 740 l 383 0 l 42 0 m 549 1001 l 549 831 l -122 831 l -122 1001 "},"ĩ":{"ha":425,"x_min":0,"x_max":0,"o":"m 42 740 l 383 740 l 383 0 l 42 0 m 538 1028 b 383 800 538 926 519 800 b 122 861 251 800 179 861 b 86 808 90 861 86 836 l -111 808 b 43 1035 -111 932 -74 1035 b 308 974 174 1035 244 974 b 342 1028 343 974 342 1003 "},"H":{"ha":1310,"x_min":0,"x_max":0,"o":"m 1254 972 l 1254 0 l 872 0 l 872 360 l 438 360 l 438 0 l 56 0 l 56 972 l 438 972 l 438 638 l 872 638 l 872 972 "}}}
